<?xml version="1.0" encoding="utf-8"?>
<svg xmlns="http://www.w3.org/2000/svg" xmlns:xlink="http://www.w3.org/1999/xlink"
     viewBox="40.0 26.4 96.4 96.4"
     width="96" height="96">
<g xmlns="http://www.w3.org/2000/svg" id="rainbow-crosses_1_">
		<g id="label_20_">
			<circle fill="#98E1A0" cx="88.2" cy="74.6" r="48.2" />
		</g>
		<g id="rainbow-crosses">
			<g id="fill_17_">
				<g>
					<path fill="#98E1A0" d="M64.6,96.9c0-13,10.6-23.6,23.6-23.6c13,0,23.6,10.6,23.6,23.6" />
				</g>
				<g>
					<g>
						<path fill="#98E1A0" d="M88.2,88.4c-7.8,0-14.2,6.3-14.3,14.1h28.7C102.4,94.7,96,88.4,88.2,88.4z" />
					</g>
					<g>
						<path fill="#FFCD4F" d="M88.2,84c-10.2,0-18.6,8.3-18.7,18.5h2.2c0.1-9,7.5-16.3,16.5-16.3c9,0,16.4,7.3,16.5,16.3h2.2        C106.8,92.3,98.4,84,88.2,84z" />
					</g>
					<g>
						<path fill="#FF9406" d="M88.2,79.7c-12.6,0-22.9,10.2-23,22.8h2.2c0.1-11.4,9.4-20.6,20.8-20.6c11.4,0,20.7,9.2,20.8,20.6h2.2        C111.1,89.9,100.8,79.7,88.2,79.7z" />
					</g>
				</g>
				<g>
					<polygon fill="#915E45" points="86.1,78.5 86.1,64.1 80.6,64.1 80.6,60 86.1,60 86.1,54.4 90.3,54.4 90.3,60 95.8,60        95.8,64.1 90.3,64.1 90.3,78.5      " />
				</g>
				<g>
					<path fill="#915E45" d="M70.7,75.7h-5.5v-4.1h5.5V66h4.1v5.5h5.5v4.1h-5.5v7L74.4,83c-0.7,0.5-1.3,1-1.9,1.5L70.7,86V75.7z" />
				</g>
				<g>
					<path fill="#915E45" d="M103.9,84.5c-0.6-0.5-1.2-1-1.9-1.5l-0.5-0.3v-7h-5.5v-4.1h5.5V66h4.1v5.5h5.5v4.1h-5.5V86L103.9,84.5z       " />
				</g>
				<g>
					<circle fill="#FFCD4F" cx="71.8" cy="54" r="2" />
				</g>
			</g>
			<g id="line_18_">
				<g>
					<g>
						<path fill="#3A3D3E" d="M105.7,87.1c-0.5,0-1-0.4-1-1V75.7c0-0.5,0.4-1,1-1h4.5v-2.2h-4.5c-0.5,0-1-0.4-1-1V67h-2.2v4.5        c0,0.5-0.4,1-1,1H97v2.2h4.5c0.5,0,1,0.4,1,1v6.9c0,0.5-0.4,1-1,1s-1-0.4-1-1v-5.9h-4.5c-0.5,0-1-0.4-1-1v-4.1        c0-0.5,0.4-1,1-1h4.5V66c0-0.5,0.4-1,1-1h4.1c0.5,0,1,0.4,1,1v4.5h4.5c0.5,0,1,0.4,1,1v4.1c0,0.5-0.4,1-1,1h-4.5v9.5        C106.7,86.6,106.2,87.1,105.7,87.1z" />
					</g>
					<g>
						<path fill="#3A3D3E" d="M70.7,86.7c-0.5,0-1-0.4-1-1v-9.2h-4.5c-0.5,0-1-0.4-1-1v-4.1c0-0.5,0.4-1,1-1h4.5V66c0-0.5,0.4-1,1-1        h4.1c0.5,0,1,0.4,1,1v4.5h4.5c0.5,0,1,0.4,1,1v4.1c0,0.5-0.4,1-1,1h-4.5v5.8c0,0.5-0.4,1-1,1s-1-0.4-1-1v-6.7c0-0.5,0.4-1,1-1        h4.5v-2.2h-4.5c-0.5,0-1-0.4-1-1V67h-2.2v4.5c0,0.5-0.4,1-1,1h-4.5v2.2h4.5c0.5,0,1,0.4,1,1v10.1        C71.7,86.3,71.3,86.7,70.7,86.7z" />
					</g>
					<g>
						<path fill="#3A3D3E" d="M90.3,79.5h-4.1c-0.5,0-1-0.4-1-1V65.1h-4.5c-0.5,0-1-0.4-1-1V60c0-0.5,0.4-1,1-1h4.5v-4.5        c0-0.5,0.4-1,1-1h4.1c0.5,0,1,0.4,1,1V59h4.5c0.5,0,1,0.4,1,1v4.1c0,0.5-0.4,1-1,1h-4.5v13.5C91.2,79.1,90.8,79.5,90.3,79.5z         M87.1,77.6h2.2V64.1c0-0.5,0.4-1,1-1h4.5v-2.2h-4.5c-0.5,0-1-0.4-1-1v-4.5h-2.2V60c0,0.5-0.4,1-1,1h-4.5v2.2h4.5        c0.5,0,1,0.4,1,1V77.6z" />
					</g>
					<g>
						<g>
							<path fill="#3A3D3E" d="M65.1,102.6l-1.9,0c0.1-13.8,11.3-25,25.1-25c13.8,0,25,11.2,25.1,25l-1.9,0         c0-12.7-10.4-23.1-23.1-23.1C75.5,79.6,65.1,89.9,65.1,102.6z" />
						</g>
						<g>
							<path fill="#3A3D3E" d="M69.4,102.6l-1.9,0C67.6,91.2,76.8,82,88.2,82c11.4,0,20.7,9.3,20.7,20.6l-1.9,0         c0-10.3-8.5-18.7-18.8-18.7C77.9,83.9,69.5,92.3,69.4,102.6z" />
						</g>
						<g>
							<path fill="#3A3D3E" d="M73.8,102.6l-1.9,0c0.1-9,7.4-16.3,16.4-16.3c9,0,16.3,7.3,16.4,16.3l-1.9,0         c0-7.9-6.5-14.4-14.4-14.4C80.3,88.3,73.8,94.7,73.8,102.6z" />
						</g>
					</g>
				</g>
				<g>
					<g>
						<path fill="#3A3D3E" d="M71.8,58c-2.2,0-4-1.8-4-4s1.8-4,4-4c2.2,0,4,1.8,4,4S74,58,71.8,58z M71.8,51.9        c-1.1,0-2.1,0.9-2.1,2.1c0,1.1,0.9,2.1,2.1,2.1c1.1,0,2.1-0.9,2.1-2.1C73.9,52.8,73,51.9,71.8,51.9z" />
					</g>
					<g>
						<path fill="#3A3D3E" d="M72,62.3c-0.5,0-1-0.4-1-1v-2.4c0-0.5,0.4-1,1-1s1,0.4,1,1v2.4C73,61.8,72.5,62.3,72,62.3z" />
					</g>
					<g>
						<path fill="#3A3D3E" d="M72,50.1c-0.5,0-1-0.4-1-1v-2.4c0-0.5,0.4-1,1-1s1,0.4,1,1v2.4C73,49.6,72.5,50.1,72,50.1z" />
					</g>
					<g>
						<path fill="#3A3D3E" d="M78.7,55.6h-1.2c-0.5,0-1-0.4-1-1s0.4-1,1-1h1.2c0.5,0,1,0.4,1,1S79.2,55.6,78.7,55.6z" />
					</g>
					<g>
						<path fill="#3A3D3E" d="M66.5,55.6h-1.2c-0.5,0-1-0.4-1-1s0.4-1,1-1h1.2c0.5,0,1,0.4,1,1S67.1,55.6,66.5,55.6z" />
					</g>
					<g>
						<path fill="#3A3D3E" d="M76.7,59.8c-0.2,0-0.5-0.1-0.7-0.3l-1.1-1.1c-0.4-0.4-0.4-1,0-1.4c0.4-0.4,1-0.4,1.4,0l1.1,1.1        c0.4,0.4,0.4,1,0,1.4C77.2,59.7,76.9,59.8,76.7,59.8z" />
					</g>
					<g>
						<path fill="#3A3D3E" d="M68.1,51.2c-0.2,0-0.5-0.1-0.7-0.3l-1.1-1.1c-0.4-0.4-0.4-1,0-1.4c0.4-0.4,1-0.4,1.4,0l1.1,1.1        c0.4,0.4,0.4,1,0,1.4C68.6,51.1,68.3,51.2,68.1,51.2z" />
					</g>
					<g>
						<path fill="#3A3D3E" d="M75.6,51.2c-0.2,0-0.5-0.1-0.7-0.3c-0.4-0.4-0.4-1,0-1.4l1.1-1.1c0.4-0.4,1-0.4,1.4,0        c0.4,0.4,0.4,1,0,1.4l-1.1,1.1C76.1,51.1,75.8,51.2,75.6,51.2z" />
					</g>
					<g>
						<path fill="#3A3D3E" d="M67,59.8c-0.2,0-0.5-0.1-0.7-0.3c-0.4-0.4-0.4-1,0-1.4l1.1-1.1c0.4-0.4,1-0.4,1.4,0        c0.4,0.4,0.4,1,0,1.4l-1.1,1.1C67.5,59.7,67.2,59.8,67,59.8z" />
					</g>
				</g>
			</g>
		</g>
	</g>

</svg>