<?xml version="1.0" encoding="utf-8"?>
<svg xmlns="http://www.w3.org/2000/svg" xmlns:xlink="http://www.w3.org/1999/xlink"
     viewBox="40.0 262.2 96.4 96.4"
     width="96" height="96">
<g xmlns="http://www.w3.org/2000/svg" id="bible">
		<g id="label_32_">
			<circle fill="#98E1A0" cx="88.2" cy="310.4" r="48.2" />
		</g>
		<g id="bible-2">
			<g id="fill_28_">
				<g>
					<path fill="#915E45" d="M106.5,314.6c-0.3-0.1-0.6-0.2-0.9-0.2H74.8c-0.1,0-0.2,0-0.3,0l-1.1,0.1v-28.3h29c3,0,5.5,2.5,5.5,5.5       v23.4L106.5,314.6z" />
				</g>
				<g>
					<path fill="#915E45" d="M68.6,291.7c0-2.2,1.4-4.2,3.4-5.1l1.3-0.5v28.5l-0.6,0.2c-0.9,0.4-1.8,0.9-2.5,1.7l-1.7,1.9V291.7z" />
				</g>
				<g>
					<path fill="#F2F2F2" d="M74.8,323.2c-1,0-1.8-1-1.8-2.2c0-1.2,0.8-2.2,1.8-2.2h4v4.4H74.8z" />
				</g>
				<g>
					<path fill="#FF9406" d="M79,333.5c-0.1-0.5-0.2-1.2-0.2-2v-12.7h9.8v12.7c0,0.8-0.1,1.5-0.2,2l-0.5,1.7l-1.2-1.4       c-0.2-0.2-0.3-0.4-0.5-0.7l-0.2-0.3c-0.6-1-1.5-1.6-2.4-1.6c-0.9,0-1.7,0.6-2.4,1.6l-0.2,0.3c-0.2,0.3-0.3,0.5-0.5,0.7       l-1.2,1.4L79,333.5z" />
				</g>
				<g>
					<path fill="#F2F2F2" d="M88.6,323.2v-4.4h16.7l-0.5,1.3c-0.2,0.6-0.2,1.3,0,1.8l0.4,1.3H88.6z" />
				</g>
				<g>
					<path fill="#915E45" d="M88.6,327.6v-4.4h17c1.2,0,2.2,1,2.2,2.2c0,1.2-1,2.2-2.2,2.2H88.6z" />
				</g>
				<g>
					<path fill="#915E45" d="M78.8,327.6h-4c-3.4,0-6.2-3-6.2-6.6c0-3.6,2.8-6.6,6.2-6.6h30.8c1.2,0,2.2,1,2.2,2.2       c0,1.2-1,2.2-2.2,2.2H74.8c-1,0-1.8,1-1.8,2.2c0,1.2,0.8,2.2,1.8,2.2h4V327.6L78.8,327.6z" />
				</g>
				<g>
					<polygon fill="#FFCD4F" points="87.3,310.6 87.3,299.4 81.8,299.4 81.8,295.3 87.3,295.3 87.3,289.8 91.4,289.8 91.4,295.3        97,295.3 97,299.4 91.4,299.4 91.4,310.6      " />
				</g>
			</g>
			<g id="line_29_">
				<g>
					<g>
						<path fill="#3A3D3E" d="M68.6,321.3c-0.5,0-1-0.4-1-1v-28.6c0-3.2,2.4-6,5.6-6.4c0.5-0.1,1,0.3,1.1,0.8c0.1,0.5-0.3,1-0.8,1.1        c-2.2,0.3-3.9,2.2-3.9,4.5v28.6C69.6,320.8,69.1,321.3,68.6,321.3z" />
					</g>
					<g>
						<path fill="#3A3D3E" d="M107.8,317.2c-0.5,0-1-0.4-1-1v-24.5c0-2.5-2-4.5-4.5-4.5h-29c-0.5,0-1-0.4-1-1s0.4-1,1-1h29        c3.6,0,6.5,2.9,6.5,6.5v24.5C108.8,316.8,108.4,317.2,107.8,317.2z" />
					</g>
					<g>
						<path fill="#3A3D3E" d="M73.4,315c-0.5,0-1-0.4-1-1v-27.8c0-0.5,0.4-1,1-1s1,0.4,1,1v27.8C74.3,314.6,73.9,315,73.4,315z" />
					</g>
					<g>
						<path fill="#3A3D3E" d="M78.4,328.6h-3.6c-4,0-7.2-3.4-7.2-7.6c0-4.2,3.2-7.6,7.2-7.6h30.8c1.7,0,3.2,1.4,3.2,3.2        s-1.4,3.2-3.2,3.2H74.8c-0.5,0-0.9,0.6-0.9,1.2c0,0.7,0.4,1.2,0.9,1.2h4v1.9h-4c-1.5,0-2.8-1.4-2.8-3.2c0-1.7,1.3-3.2,2.8-3.2        h30.8c0.7,0,1.2-0.6,1.2-1.2s-0.6-1.2-1.2-1.2H74.8c-2.9,0-5.3,2.5-5.3,5.6c0,3.1,2.4,5.6,5.3,5.6h3.6V328.6z" />
					</g>
					<g>
						<path fill="#3A3D3E" d="M105.6,328.6H88.2v-1.9h17.5c0.7,0,1.2-0.6,1.2-1.2c0-0.7-0.6-1.2-1.2-1.2h-17v-1.9h17        c1.7,0,3.2,1.4,3.2,3.2C108.8,327.2,107.4,328.6,105.6,328.6z" />
					</g>
					<g>
						<path fill="#3A3D3E" d="M105.6,324.2c-0.2,0-0.5-0.1-0.7-0.3c-2.1-2.1-1.2-4.6,0-5.8c0.4-0.4,1-0.4,1.4,0c0.4,0.4,0.4,1,0,1.4        c-0.3,0.3-1.4,1.6,0,3c0.4,0.4,0.4,1,0,1.4C106.1,324.1,105.9,324.2,105.6,324.2z" />
					</g>
					<g>
						<path fill="#3A3D3E" d="M79.9,335.4c-0.1,0-0.3,0-0.4-0.1c-1.1-0.3-1.6-1.5-1.6-3.8v-12.4h1.9v12.4c0,0.9,0.1,1.4,0.2,1.7        c0.1-0.1,0.2-0.3,0.4-0.6l0.2-0.3c0.8-1.3,2-2.1,3.2-2.1s2.4,0.8,3.2,2.1l0.2,0.3c0.2,0.3,0.3,0.4,0.4,0.6        c0.1-0.3,0.2-0.9,0.2-1.7v-12.4h1.9v12.4c0,2.3-0.5,3.5-1.6,3.8c-0.9,0.2-1.8-0.3-2.6-1.7l-0.2-0.3c-0.4-0.7-1-1.2-1.5-1.2        c-0.5,0-1.1,0.4-1.5,1.2l-0.2,0.3C81.3,334.8,80.6,335.4,79.9,335.4z" />
					</g>
				</g>
				<g>
					<path fill="#3A3D3E" d="M92.4,311.5h-6.1v-11.1h-5.5v-6.1h5.5v-5.5h6.1v5.5h5.5v6.1h-5.5V311.5z M88.3,309.6h2.2v-11.1H96v-2.2       h-5.5v-5.5h-2.2v5.5h-5.5v2.2h5.5V309.6z" />
				</g>
			</g>
		</g>
	</g>
	
</svg>