<?xml version="1.0" encoding="utf-8"?>
<svg xmlns="http://www.w3.org/2000/svg" xmlns:xlink="http://www.w3.org/1999/xlink"
     viewBox="413.6 26.4 96.4 96.4"
     width="96" height="96">
<g xmlns="http://www.w3.org/2000/svg" id="crown-of-thorns_1_">
		<g id="label_6_">
			<circle fill="#FFCD4F" cx="461.8" cy="74.6" r="48.2" />
		</g>
		<g id="crown-of-thorns">
			<g id="fill_6_">
				<g>
					<path fill="#915E45" d="M484.6,75.8c-0.1,1.3-0.5,2.4-1.2,3.4c-0.2-0.3-0.4-0.6-0.6-1c-1.6-2.1-1.6-5,0-7.1       C484,72.3,484.7,74,484.6,75.8z" />
				</g>
				<g>
					<path fill="#915E45" d="M481.8,63.5c0.8,1.5,0.9,3.2,0.3,4.8c-2.3-1.2-3.6-3.8-3.2-6.4c0.1-0.4,0.1-0.8,0.1-1.1       C480.1,61.3,481.1,62.3,481.8,63.5z" />
				</g>
				<g>
					<path fill="#915E45" d="M475.6,56.7c0.4,0.5,0.7,1,1,1.6c-0.4,0-0.8,0-1.1,0c-2.6,0.3-5.1-1.2-6.2-3.5c0.5-0.2,1.1-0.2,1.7-0.2       C472.7,54.5,474.5,55.3,475.6,56.7z" />
				</g>
				<g>
					<path fill="#915E45" d="M461.8,51.8c1.8,0,3.5,0.8,4.6,2.1c-2.2,1.4-5.1,1.2-7.1-0.4c-0.3-0.2-0.6-0.5-0.9-0.7       C459.4,52.2,460.6,51.8,461.8,51.8z" />
				</g>
				<g>
					<path fill="#915E45" d="M449.8,55.6c1.2-1.2,2.8-2,4.5-2c0.2,0,0.5,0,0.7,0.1c-0.2,0.3-0.4,0.6-0.5,1c-1.1,2.4-3.5,3.9-6.2,3.6       C448.6,57.3,449.1,56.3,449.8,55.6z" />
				</g>
				<g>
					<path fill="#915E45" d="M441.9,63.5c0.9-1.7,2.5-2.9,4.3-3.2c0.1,2.6-1.5,5-3.9,6c-0.4,0.1-0.7,0.3-1,0.5       C441.2,65.6,441.4,64.5,441.9,63.5z" />
				</g>
				<g>
					<path fill="#915E45" d="M439.1,73.4c0.1-1.3,0.5-2.4,1.2-3.4c0.2,0.3,0.4,0.6,0.6,1c1.6,2.1,1.6,5,0,7.1       C439.7,77,439,75.3,439.1,73.4z" />
				</g>
				<g>
					<path fill="#915E45" d="M441.9,85.7c-0.8-1.5-0.9-3.2-0.3-4.8c2.3,1.2,3.6,3.8,3.2,6.4c-0.1,0.4-0.1,0.8-0.1,1.1       C443.5,87.9,442.6,87,441.9,85.7z" />
				</g>
				<g>
					<path fill="#915E45" d="M448.1,92.6c-0.4-0.5-0.7-1-1-1.6c0.4,0,0.8,0,1.1,0c2.6-0.3,5.1,1.2,6.2,3.5c-0.5,0.2-1.1,0.2-1.7,0.2       C451,94.7,449.2,93.9,448.1,92.6z" />
				</g>
				<g>
					<path fill="#915E45" d="M461.8,97.4c-1.8,0-3.5-0.8-4.6-2.1c2.2-1.4,5.1-1.2,7.1,0.4c0.3,0.2,0.6,0.5,0.9,0.7       C464.3,97,463.1,97.4,461.8,97.4z" />
				</g>
				<g>
					<path fill="#915E45" d="M473.9,93.7c-1.2,1.2-2.8,2-4.5,2c-0.2,0-0.5,0-0.7-0.1c0.2-0.3,0.4-0.6,0.5-1c1.1-2.4,3.5-3.9,6.2-3.6       C475.1,92,474.6,92.9,473.9,93.7z" />
				</g>
				<g>
					<path fill="#915E45" d="M481.8,85.7c-0.9,1.7-2.5,2.9-4.3,3.2c-0.1-2.6,1.5-5,3.9-6c0.4-0.1,0.7-0.3,1-0.5       C482.5,83.6,482.3,84.7,481.8,85.7z" />
				</g>
			</g>
			<g id="line_7_">
				<g>
					<path fill="#3A3D3E" d="M461.8,54.6c-0.5,0-1-0.4-1-1v-5.5c0-0.5,0.4-1,1-1s1,0.4,1,1v5.5C462.8,54.1,462.3,54.6,461.8,54.6z" />
				</g>
				<g>
					<path fill="#3A3D3E" d="M461.8,102.1c-0.5,0-1-0.4-1-1v-5.5c0-0.5,0.4-1,1-1s1,0.4,1,1v5.5       C462.8,101.7,462.3,102.1,461.8,102.1z" />
				</g>
				<g>
					<path fill="#3A3D3E" d="M488.3,75.6h-5.5c-0.5,0-1-0.4-1-1s0.4-1,1-1h5.5c0.5,0,1,0.4,1,1S488.8,75.6,488.3,75.6z" />
				</g>
				<g>
					<path fill="#3A3D3E" d="M440.8,75.6h-5.5c-0.5,0-1-0.4-1-1s0.4-1,1-1h5.5c0.5,0,1,0.4,1,1S441.3,75.6,440.8,75.6z" />
				</g>
				<g>
					<path fill="#3A3D3E" d="M451.3,57.4c-0.3,0-0.7-0.2-0.8-0.5l-2.7-4.8c-0.3-0.5-0.1-1.1,0.4-1.3c0.5-0.3,1.1-0.1,1.3,0.4       l2.7,4.8c0.3,0.5,0.1,1.1-0.4,1.3C451.6,57.4,451.4,57.4,451.3,57.4z" />
				</g>
				<g>
					<path fill="#3A3D3E" d="M475,98.6c-0.3,0-0.7-0.2-0.8-0.5l-2.7-4.8c-0.3-0.5-0.1-1.1,0.4-1.3c0.5-0.3,1.1-0.1,1.3,0.4l2.7,4.8       c0.3,0.5,0.1,1.1-0.4,1.3C475.4,98.5,475.2,98.6,475,98.6z" />
				</g>
				<g>
					<path fill="#3A3D3E" d="M480,65.1c-0.3,0-0.7-0.2-0.8-0.5c-0.3-0.5-0.1-1.1,0.4-1.3l4.8-2.7c0.5-0.3,1.1-0.1,1.3,0.4       c0.3,0.5,0.1,1.1-0.4,1.3l-4.8,2.7C480.3,65,480.2,65.1,480,65.1z" />
				</g>
				<g>
					<path fill="#3A3D3E" d="M438.8,88.9c-0.3,0-0.7-0.2-0.8-0.5c-0.3-0.5-0.1-1.1,0.4-1.3l4.8-2.7c0.5-0.3,1.1-0.1,1.3,0.4       c0.3,0.5,0.1,1.1-0.4,1.3l-4.8,2.7C439.2,88.8,439,88.9,438.8,88.9z" />
				</g>
				<g>
					<path fill="#3A3D3E" d="M443.6,65.1c-0.2,0-0.3,0-0.5-0.1l-4.8-2.7c-0.5-0.3-0.6-0.9-0.4-1.3c0.3-0.5,0.9-0.6,1.3-0.4l4.8,2.7       c0.5,0.3,0.6,0.9,0.4,1.3C444.2,64.9,443.9,65.1,443.6,65.1z" />
				</g>
				<g>
					<path fill="#3A3D3E" d="M484.8,88.9c-0.2,0-0.3,0-0.5-0.1l-4.8-2.7c-0.5-0.3-0.6-0.9-0.4-1.3s0.9-0.6,1.3-0.4l4.8,2.7       c0.5,0.3,0.6,0.9,0.4,1.3C485.4,88.7,485.1,88.9,484.8,88.9z" />
				</g>
				<g>
					<path fill="#3A3D3E" d="M472.3,57.4c-0.2,0-0.3,0-0.5-0.1c-0.5-0.3-0.6-0.9-0.4-1.3l2.7-4.8c0.3-0.5,0.9-0.6,1.3-0.4       c0.5,0.3,0.6,0.9,0.4,1.3l-2.7,4.8C473,57.2,472.6,57.4,472.3,57.4z" />
				</g>
				<g>
					<path fill="#3A3D3E" d="M448.5,98.6c-0.2,0-0.3,0-0.5-0.1c-0.5-0.3-0.6-0.9-0.4-1.3l2.7-4.8c0.3-0.5,0.9-0.6,1.3-0.4       c0.5,0.3,0.6,0.9,0.4,1.3l-2.7,4.8C449.2,98.4,448.9,98.6,448.5,98.6z" />
				</g>
				<g>
					<g>
						<path fill="#3A3D3E" d="M461.8,99.4L461.8,99.4c-3.2,0-6-1.8-7.3-4.8c-1.1-2.4-3.6-3.9-6.2-3.6c-3.2,0.3-6.2-1.2-7.8-4        s-1.4-6.2,0.5-8.8c1.6-2.2,1.6-5.1,0-7.2c-1.9-2.6-2.1-6-0.5-8.8c1.6-2.8,4.6-4.3,7.8-4c2.7,0.3,5.2-1.2,6.2-3.6        c1.3-3,4.1-4.8,7.3-4.8c3.2,0,6,1.8,7.3,4.8l0,0c1.1,2.4,3.6,3.9,6.2,3.6c3.2-0.4,6.2,1.2,7.8,4c1.6,2.8,1.4,6.2-0.5,8.8        c-1.6,2.2-1.6,5.1,0,7.2c1.9,2.6,2.1,6,0.5,8.8c-1.6,2.8-4.6,4.3-7.8,4c-2.7-0.3-5.2,1.2-6.2,3.6        C467.9,97.5,465.1,99.4,461.8,99.4z M448.9,89c3.2,0,6,1.8,7.3,4.8c1,2.2,3.1,3.6,5.6,3.6l0,0c2.5,0,4.6-1.4,5.6-3.6        c1.4-3.2,4.7-5.1,8.2-4.7c2.4,0.3,4.7-0.9,5.9-3c1.2-2.1,1.1-4.7-0.4-6.7c-2.1-2.8-2.1-6.7,0-9.5c1.5-2,1.6-4.5,0.4-6.7        c-1.2-2.1-3.5-3.3-5.9-3c-3.5,0.4-6.8-1.5-8.2-4.7l0,0c-1-2.2-3.1-3.6-5.6-3.6c-2.5,0-4.6,1.4-5.6,3.6        c-1.4,3.2-4.7,5.1-8.2,4.7c-2.4-0.3-4.7,0.9-5.9,3c-1.2,2.1-1.1,4.7,0.4,6.7c2.1,2.8,2.1,6.7,0,9.5c-1.4,2-1.6,4.5-0.4,6.7        c1.2,2.1,3.5,3.3,5.9,3C448.3,89,448.6,89,448.9,89z" />
					</g>
					<g>
						<path fill="#3A3D3E" d="M469.4,97.6c-1.8,0-3.6-0.6-5.1-1.8c-2.1-1.7-5-1.8-7.2-0.4c-2.7,1.8-6.1,1.8-8.8,0        c-2.7-1.8-4.1-4.8-3.6-8c0.4-2.6-0.9-5.2-3.3-6.4c-2.9-1.5-4.6-4.4-4.4-7.6c0.2-3.2,2.1-5.9,5.2-7.1c2.5-0.9,4.1-3.4,3.9-6        c-0.2-3.2,1.5-6.1,4.4-7.6c2.9-1.5,6.2-1.1,8.7,0.9l0,0c2.1,1.7,5,1.8,7.2,0.4c2.7-1.8,6.1-1.8,8.8,0c2.7,1.8,4.1,4.8,3.6,8        c-0.4,2.6,0.9,5.2,3.3,6.4c2.9,1.5,4.6,4.4,4.4,7.6c-0.2,3.2-2.2,5.9-5.2,7.1c-2.5,0.9-4.1,3.4-3.9,6c0.2,3.2-1.5,6.1-4.4,7.6        C471.9,97.3,470.6,97.6,469.4,97.6z M460.5,92.4c1.8,0,3.6,0.6,5.1,1.8c1.9,1.6,4.4,1.8,6.6,0.7s3.5-3.3,3.3-5.8        c-0.2-3.5,1.9-6.7,5.2-8c2.3-0.9,3.8-2.9,3.9-5.4c0.1-2.5-1.2-4.7-3.3-5.8c-3.1-1.6-4.9-5-4.3-8.5c0.4-2.4-0.6-4.8-2.7-6.1        s-4.6-1.3-6.7,0c-2.9,1.9-6.8,1.7-9.5-0.5l0,0c-1.9-1.6-4.4-1.8-6.6-0.7c-2.2,1.1-3.5,3.3-3.3,5.8c0.2,3.5-1.9,6.7-5.2,8        c-2.3,0.9-3.8,2.9-3.9,5.4c-0.1,2.5,1.2,4.7,3.3,5.8c3.1,1.6,4.9,5,4.3,8.5c-0.4,2.4,0.6,4.8,2.7,6.1c2.1,1.3,4.6,1.3,6.7,0        C457.4,92.9,459,92.4,460.5,92.4z" />
					</g>
				</g>
			</g>
		</g>
	</g>
	
</svg>