<?xml version="1.0" encoding="utf-8"?>
<svg xmlns="http://www.w3.org/2000/svg" xmlns:xlink="http://www.w3.org/1999/xlink"
     viewBox="164.5 262.2 96.4 96.4"
     width="96" height="96">
<g xmlns="http://www.w3.org/2000/svg" id="wooden-cross_1_">
		<g id="label_35_">
			<circle fill="#FFCD4F" cx="212.7" cy="310.4" r="48.2" />
		</g>
		<g id="wooden-cross">
			<g id="fill_29_">
				<g>
					<polygon fill="#96664E" points="230.3,295.2 217.5,295.2 217.5,282.4 207.9,282.4 207.9,295.2 195.2,295.2 195.2,304.8        207.9,304.8 207.9,338.3 217.5,338.3 217.5,304.8 230.3,304.8      " />
				</g>
				<g>
					<g>
						<path fill="#3A3D3E" d="M209.8,333.2c0.2,0,0.4-0.1,0.5-0.3c0.1-0.3,0-0.6-0.3-0.7c-0.1,0-0.9-0.4-2.1-0.8v1.1        c1,0.3,1.6,0.6,1.6,0.6C209.6,333.2,209.7,333.2,209.8,333.2z" />
					</g>
					<g>
						<path fill="#3A3D3E" d="M215.3,331.5c-0.3-0.1-0.6,0-0.7,0.2c-0.1,0.3,0,0.6,0.2,0.7c0.1,0,1,0.5,2.6,0.5c0,0,0.1,0,0.2,0        v-1.1C216.2,332,215.4,331.6,215.3,331.5z" />
					</g>
					<g>
						<path fill="#3A3D3E" d="M208,310.7C208,310.7,207.9,310.7,208,310.7l0,1.2c0.1,0.5,0.5,0.9,1.1,1.2c0.4,0.1,0.8,0.2,1.2,0.2        c1.9,0,4.4-1.1,5.3-2.5c0.4-0.6,0.4-1.1,0.1-1.4c-0.2-0.2-0.8-0.8-4.1,0.9c-0.3,0.1-0.4,0.5-0.2,0.7c0.1,0.3,0.5,0.4,0.7,0.2        c1-0.5,2.1-0.9,2.6-1c0,0,0,0,0,0c-0.8,1.3-3.9,2.4-5.1,1.9c-0.3-0.1-0.6-0.3-0.4-1.1c0.4-1.8,4.9-3.2,8.5-3.9v-1.1        C214.5,306.5,208.6,307.9,208,310.7z" />
					</g>
					<g>
						<path fill="#3A3D3E" d="M205.3,300.8c-0.3-0.1-0.6,0.1-0.7,0.4c-0.1,0.3,0.1,0.6,0.4,0.7c1.4,0.4,1.4,2.7,1.4,2.7        c0,0.1,0,0.2,0.1,0.2h1c0-0.1,0.1-0.1,0.1-0.2C207.5,304.4,207.5,301.4,205.3,300.8z" />
					</g>
					<g>
						<path fill="#3A3D3E" d="M210.9,282.4h-1.4c-0.6,0.8-1.1,1.8-1.6,2.6v2.6c0,0,0,0,0,0C208.6,286,209.8,283.7,210.9,282.4z" />
					</g>
					<g>
						<path fill="#3A3D3E" d="M211.4,285.3c-0.2,0.2-0.3,0.5-0.1,0.8c0.2,0.2,0.5,0.3,0.8,0.1c0.7-0.5,2.1-2.3,2.1-3.8H213        C213,283.5,211.9,285,211.4,285.3z" />
					</g>
					<g>
						<path fill="#3A3D3E" d="M217.2,284c0.1,0.2,0.2,0.3,0.3,0.4v-2h-0.6C216.8,283,216.9,283.5,217.2,284z" />
					</g>
					<g>
						<path fill="#3A3D3E" d="M210.9,297.4c-0.8-0.2-0.8-0.6-0.8-0.7c-0.1-0.8,1.1-2.2,2.5-3c1.1-0.6,2.1-0.7,2.6-0.3        c0.3,0.2,0.5,0.5,0.4,0.6c-0.1,0.5-1.5,1.1-2.7,1.3c-0.3,0.1-0.5,0.3-0.4,0.6c0.1,0.3,0.3,0.5,0.6,0.4        c0.5-0.1,3.2-0.7,3.6-2.1c0.1-0.4,0-1-0.8-1.7c-0.9-0.7-2.3-0.7-3.8,0.2c-1.6,0.9-3.2,2.6-3.1,4c0,0.4,0.3,1.3,1.6,1.6        c2.7,0.8,6.3-1.1,7.6-3.3h-0.8v-0.9c0,0,0,0.1,0,0.1C216.5,296.3,213.3,298.1,210.9,297.4z" />
					</g>
					<g>
						<path fill="#3A3D3E" d="M217.5,287v-1.2c-1.2-0.6-1.5-1.6-1.6-3.5h-1.1C215,285.1,215.7,286.4,217.5,287z" />
					</g>
					<g>
						<path fill="#3A3D3E" d="M230.1,296.6c-0.6-0.4-1.4-0.7-2.3-0.8c-2.5-0.4-5.1,0.5-6.1,2.1c-0.6,0.8-1,2.3,0.1,4.2        c0.7,1.2,1.5,2,2.3,2.6h2.5c-1.4-0.4-2.8-1.3-3.9-3.1c-0.7-1.2-0.7-2.2-0.2-3.1c0.8-1.3,3-2,5.1-1.7c1,0.1,1.8,0.5,2.4,1.1        v0.3c-0.1-0.1-0.2-0.2-0.4-0.3c-1.4-1-4.4-1.2-5.7-0.1c-0.5,0.4-1.1,1.3-0.4,2.9c1.2,2.7,4.3,3.6,6.4,2.8c0,0,0.1,0,0.1-0.1        v1.3h0.2v-9.6h-0.9c0.3,0.1,0.5,0.2,0.7,0.3V296.6z M230.1,302.3c-0.2,0.1-0.3,0.2-0.5,0.3c-1.6,0.6-4.1-0.1-5-2.2        c-0.5-1.1,0-1.5,0.1-1.6c0.9-0.8,3.4-0.5,4.4,0.2c0.3,0.2,0.4,0.4,0.4,0.6c-0.3,0.8-0.7,1.3-1.3,1.4c-0.5,0.1-1-0.1-1.3-0.5        c-0.2-0.2-0.5-0.3-0.8-0.1c-0.2,0.2-0.3,0.5-0.1,0.8c0.5,0.7,1.5,1.1,2.4,0.9c0.5-0.1,1.2-0.3,1.7-1.2V302.3z" />
					</g>
					<g>
						<path fill="#3A3D3E" d="M207,298.4c1.2,1.4,2.7,2.3,4.5,2.4c0.2,0,0.3,0,0.5,0c2.7,0,5.7-1.5,8.8-4.4c0.6-0.5,1.2-1,1.8-1.3        h-2c-0.2,0.1-0.4,0.3-0.5,0.5c-3,2.8-6,4.2-8.5,4.1c-1.5-0.1-2.7-0.8-3.7-2c-0.7-0.8-0.4-1.7,0-2.5h-1.2        C206.2,296.3,206.3,297.5,207,298.4z" />
					</g>
					<g>
						<path fill="#3A3D3E" d="M215.3,288.6c1,0,1.7,0.2,2.3,0.4v-1.2c-0.6-0.2-1.3-0.3-2.2-0.4c-3-0.1-5.4,0.9-7.3,2.4v1.4        c1.9-1.5,4.2-2.7,7.1-2.7C215.1,288.6,215.2,288.6,215.3,288.6z" />
					</g>
					<g>
						<path fill="#3A3D3E" d="M217,291.7c0.2,0.2,0.4,0.4,0.5,0.6v-1.5c-2.4-1.8-6.8-0.2-9.3,2.3c-0.1,0.1-0.2,0.2-0.2,0.3v1.8        c0.3-0.5,0.7-1,1-1.3C211.2,291.6,215.2,290.2,217,291.7z" />
					</g>
					<g>
						<path fill="#3A3D3E" d="M195.6,304.8h1.8c-0.2-0.3-0.3-0.6-0.4-0.9c-0.3-1,0.9-2.5,2.8-3.5c2.1-1.1,5.3-1.6,7.2,0.7        c2.5,3.1,10.5,0.5,11.4,0.2c0.3-0.1,0.4-0.4,0.3-0.7c-0.1-0.3-0.4-0.4-0.7-0.3c-2.3,0.8-8.5,2.3-10.2,0.2        c-2.3-2.8-6-2.3-8.5-1c-1.1,0.6-2,1.3-2.6,2.1v-2.5c0,0,0,0,0,0c0,0,0,0,0.1,0c0.2,0,4.5-0.6,7.3-3.8c0,0,0-0.1,0.1-0.1h-1.5        c-2.4,2.3-5.8,2.8-6,2.8v-1.5c0.2,0,0.3,0,0.5,0c1,0,2.2-0.3,3.6-1.4h-2.1c-0.8,0.3-1.5,0.3-2,0.3v-0.3h-1.1v1.1V304.8z" />
					</g>
					<g>
						<path fill="#3A3D3E" d="M204.5,302.3c-1.4-0.9-4-0.4-4.9,0.7c-0.4,0.5-0.6,1.1-0.4,1.7h1.1c0,0,0-0.1-0.1-0.1        c-0.1-0.3,0-0.6,0.2-0.9c0.6-0.7,2.6-1.1,3.5-0.5c0.4,0.3,0.6,0.8,0.4,1.5h1.1C205.7,303.4,205,302.7,204.5,302.3z" />
					</g>
					<g>
						<path fill="#3A3D3E" d="M207.9,335.2c2.5,0.9,4.8,2,6.8,3.1h2.2c-2.4-1.4-5.6-3.1-9-4.3V335.2z" />
					</g>
					<g>
						<path fill="#3A3D3E" d="M211.3,320.8c0.2,0,0.3-0.1,0.4-0.2c0.2-0.2,0.2-0.6-0.1-0.8c-1.2-1-2.5-1.9-3.7-2.7v1.3        c1,0.7,2,1.4,3,2.2C211.1,320.8,211.2,320.8,211.3,320.8z" />
					</g>
					<g>
						<path fill="#3A3D3E" d="M207.9,337.8c0.5,0.2,1,0.3,1.5,0.5h2.8c-1.3-0.6-2.8-1.2-4.3-1.7V337.8z" />
					</g>
					<g>
						<path fill="#3A3D3E" d="M207.9,282.4v0.4c0.1-0.1,0.2-0.3,0.2-0.4H207.9z" />
					</g>
					<g>
						<path fill="#3A3D3E" d="M211.9,328.2c0.6,0.7,1.4,1.4,2.4,2.1c0.1,0.1,0.2,0.1,0.3,0.1c0.2,0,0.3-0.1,0.4-0.2        c0.2-0.2,0.1-0.6-0.1-0.8c-1-0.7-1.6-1.3-2.3-2c-1.1-1.2-2.2-2.3-4.8-2.8v1.1C210.1,326.2,210.9,327.1,211.9,328.2z" />
					</g>
					<g>
						<path fill="#3A3D3E" d="M216,315.7c-2.8,3.1-3,6.6-0.8,9.1c0.7,0.8,1.5,1.4,2.3,1.9v-1.3c-0.5-0.4-1-0.8-1.5-1.3        c-2.7-3.1-0.4-6.4,0.8-7.7c0.2-0.3,0.5-0.5,0.7-0.8v-1.5C217,314.7,216.4,315.2,216,315.7z" />
					</g>
					<g>
						<path fill="#3A3D3E" d="M207.9,305.6v1.3c4.1-3,10-3.7,13.2-2.1h2c-0.1,0-0.1-0.1-0.2-0.1C219.9,302,212.9,302.3,207.9,305.6z        " />
					</g>
					<g>
						<path fill="#3A3D3E" d="M209.7,314.6c-0.5-0.2-1.1-0.4-1.7-0.6v1.1c0.5,0.2,0.9,0.3,1.4,0.5c0.5,0.2,0.9,0.2,1.4,0.2        c1.7,0,3.2-1.1,4.8-2.4c0.6-0.5,1.3-1,2-1.5v-1.3c-1,0.6-1.9,1.3-2.7,1.9C212.9,314.2,211.4,315.3,209.7,314.6z" />
					</g>
					<g>
						<path fill="#3A3D3E" d="M213.7,332.4c-0.4-0.7-2.1-2.9-5.7-4.1v1.1c3,1.1,4.4,3,4.8,3.6c1.2,1.8,4.1,3.1,4.3,3.2        c0.1,0,0.1,0,0.2,0c0.1,0,0.2,0,0.3-0.1v-0.9c0,0,0,0,0,0C217.5,335.2,214.7,333.9,213.7,332.4z" />
					</g>
					<g>
						<path fill="#3A3D3E" d="M217,322.4c0.1,0.3,0.3,0.6,0.5,0.8v-4.7C216.6,319.9,216.4,321.2,217,322.4z" />
					</g>
					<g>
						<path fill="#3A3D3E" d="M207.9,320.1v1.4c1.5,1.2,2.9,2.5,4.2,3.6c1.9,1.8,3.6,3.3,5.2,4.1c0.1,0,0.1,0.1,0.2,0.1v-1.2        c-1.4-0.8-2.9-2.2-4.6-3.8C211.4,323,209.8,321.5,207.9,320.1z" />
					</g>
				</g>
			</g>
			<g id="line_30_">
				<path fill="#3A3D3E" d="M218.5,339.3H207v-33.6h-12.8v-11.5H207v-12.8h11.5v12.8h12.8v11.5h-12.8V339.3z M208.9,337.4h7.7v-33.6      h12.8v-7.7h-12.8v-12.8h-7.7v12.8h-12.8v7.7h12.8V337.4z" />
			</g>
		</g>
	</g>
	
</svg>