<?xml version="1.0" encoding="utf-8"?>
<svg xmlns="http://www.w3.org/2000/svg" xmlns:xlink="http://www.w3.org/1999/xlink"
     viewBox="289.1 26.4 96.4 96.4"
     width="96" height="96">
<g xmlns="http://www.w3.org/2000/svg" id="church_1_">
		<g id="label_19_">
			<circle fill="#98E1A0" cx="337.3" cy="74.6" r="48.2" />
		</g>
		<g id="church">
			<g id="fill_16_">
				<g>
					<circle fill="#FFCD4F" cx="337.3" cy="50.3" r="5.8" />
				</g>
				<g>
					<polygon fill="#915E45" points="331.3,63.7 335.3,55.7 339.3,55.7 343.3,63.7      " />
				</g>
				<g>
					<rect x="333.3" y="63.7" fill="#915E45" width="8" height="6" />
				</g>
				<g>
					<polygon fill="#915E45" points="320.8,84.6 331.8,69.6 341.8,69.6 353.7,84.6      " />
				</g>
				<g>
					<path fill="#FF9406" d="M337.3,102.6V90.5l1.2,0.4c1.9,0.5,3.3,2.3,3.3,4.3v7.5H337.3z" />
				</g>
				<g>
					<path fill="#FF9406" d="M332.8,102.6v-7.5c0-2,1.3-3.8,3.3-4.3l1.2-0.4v12.1H332.8z" />
				</g>
				<g>
					<path fill="#915E45" d="M341.8,102.6v-7.5c0-2.5-2-4.5-4.5-4.5c-2.5,0-4.5,2-4.5,4.5v7.5h-9v-18h27v18H341.8z" />
				</g>
				<g>
					<rect x="333.8" y="73.8" fill="#FF9406" width="7" height="7.6" />
				</g>
			</g>
			<g id="line_17_">
				<g>
					<path fill="#3A3D3E" d="M355.7,85.6h-36.9l12.4-16.9h10.9L355.7,85.6z M322.7,83.7h29l-10.4-13.1h-9L322.7,83.7z" />
				</g>
				<g>
					<g>
						<rect x="340.3" y="63.4" fill="#3A3D3E" width="1.9" height="6.2" />
					</g>
					<g>
						<rect x="332.3" y="63.4" fill="#3A3D3E" width="1.9" height="6.2" />
					</g>
				</g>
				<g>
					<path fill="#3A3D3E" d="M344.8,64.6h-15.1l5-9.9h5.2L344.8,64.6z M332.8,62.7h8.9l-3-6.1h-2.8L332.8,62.7z" />
				</g>
				<g>
					<rect x="336.3" y="46.7" fill="#3A3D3E" width="1.9" height="9" />
				</g>
				<g>
					<rect x="334.3" y="48.7" fill="#3A3D3E" width="6" height="1.9" />
				</g>
				<g>
					<path fill="#3A3D3E" d="M350.7,103.6h-9c-0.5,0-1-0.4-1-1v-7.5c0-1.9-1.6-3.5-3.5-3.5c-1.9,0-3.5,1.6-3.5,3.5v7.5       c0,0.5-0.4,1-1,1h-9c-0.5,0-1-0.4-1-1v-18c0-0.5,0.4-1,1-1h27c0.5,0,1,0.4,1,1v18C351.7,103.1,351.3,103.6,350.7,103.6z        M342.7,101.6h7.1v-16h-25v16h7.1v-6.5c0-3,2.4-5.5,5.5-5.5c3,0,5.5,2.4,5.5,5.5V101.6z" />
				</g>
				<g>
					<rect x="318" y="101.6" fill="#3A3D3E" width="38.6" height="1.9" />
				</g>
				<g>
					<g>
						<rect x="331.8" y="80.4" fill="#3A3D3E" width="11" height="1.9" />
					</g>
					<g>
						<polygon fill="#3A3D3E" points="341.7,81.7 339.8,81.7 339.8,74.7 334.7,74.7 334.7,81.7 332.8,81.7 332.8,72.8 341.7,72.8               " />
					</g>
				</g>
				<g>
					<rect x="336.3" y="90.6" fill="#3A3D3E" width="1.9" height="11.8" />
				</g>
			</g>
		</g>
	</g>
	
</svg>