<?xml version="1.0" encoding="utf-8"?>
<svg xmlns="http://www.w3.org/2000/svg" xmlns:xlink="http://www.w3.org/1999/xlink"
     viewBox="164.5 144.3 96.4 96.4"
     width="96" height="96">
<g xmlns="http://www.w3.org/2000/svg" id="jesus">
		<g id="label_2_">
			<circle fill="#98E1A0" cx="212.7" cy="192.5" r="48.2" />
		</g>
		<g id="jesus_1_">
			<g id="fill_2_">
				<g>
					<circle fill="#FFC023" cx="212.7" cy="187.8" r="23.3" />
					<path fill="#3A3D3E" d="M212.7,212c-13.4,0-24.2-10.9-24.2-24.2c0-13.4,10.9-24.2,24.2-24.2c13.4,0,24.2,10.9,24.2,24.2       C237,201.1,226.1,212,212.7,212z M212.7,165.5c-12.3,0-22.3,10-22.3,22.3c0,12.3,10,22.3,22.3,22.3s22.3-10,22.3-22.3       C235,175.5,225,165.5,212.7,165.5z" />
				</g>
				<g>
					<path fill="#915E45" d="M213.2,174.4L213.2,174.4L213.2,174.4c-19.6,0-17.9,22.8-17.9,26.2l-1.9,16.9l10.7-1.9       c1.8,1.1,6.5,4.9,9,4.9c2.3,0,6.8-3.7,8.5-4.9l11.2,1.9l-1.9-16.9C231,197.2,232.3,174.7,213.2,174.4z" />
				</g>
				<g>
					<path fill="#FFFFFF" d="M203,204.8c-3.4-4.4-3.5-11-3.4-13.5c7.9,0,13.6-7.6,13.6-7.6s5.8,7.6,13.6,7.6       c0.1,2.5-0.1,9.3-3.6,13.7" />
				</g>
				<g>
					<path fill="#915E45" d="M224.8,210c0,0-0.4-9.1-7.6-9.1c-2.1,0-3.4,0.7-4,1.8c-0.7-1.1-1.9-1.8-4-1.8c-7.1,0-7.6,9.1-7.6,9.1       s7.7-2.7,11.6-4.1C217.1,207.3,224.8,210,224.8,210z" />
				</g>
				<g>
					<path fill="#FFFFFF" d="M213.1,205.7l-7.1,2.7c0,2.2,3.2,4.1,7.2,4.1s7.2-1.8,7.2-4.1L213.1,205.7z" />
				</g>
			</g>
			<g id="line_3_">
				<g>
					<path fill="#3A3D3E" d="M213.2,221.4c-2.3,0-5.5-2.3-7.9-4c-0.5-0.3-0.9-0.6-1.3-0.9l-10.3,1.8c-0.3,0.1-0.6,0-0.8-0.2       c-0.2-0.2-0.3-0.5-0.3-0.8l1.9-16.8c0-0.2,0-0.4,0-0.7c-0.1-3.7-0.3-15,6.1-21.5c3.1-3.2,7.4-4.8,12.7-4.8c0,0,0.1,0,0.1,0       c8.7,0.2,19.1,4.9,18.8,26.5l0,0.5l1.9,16.8c0,0.3-0.1,0.6-0.3,0.8c-0.2,0.2-0.5,0.3-0.8,0.3l-10.8-1.8       c-0.2,0.2-0.5,0.4-0.8,0.6C218.3,219.3,215.3,221.4,213.2,221.4z M204.2,214.6c0.2,0,0.4,0,0.5,0.1c0.4,0.3,1,0.7,1.7,1.1       c1.9,1.4,5.2,3.6,6.8,3.6c1.6,0,5.1-2.6,6.8-3.9c0.5-0.3,0.8-0.6,1.1-0.8c0.2-0.1,0.5-0.2,0.7-0.2l9.9,1.7l-1.7-15.6       c0,0,0-0.1,0-0.1l0-0.6c0.2-15.9-5.6-24.4-16.9-24.6h0c-4.8,0-8.6,1.4-11.4,4.3c-5.8,6-5.6,16.6-5.5,20.1c0,0.3,0,0.6,0,0.8       c0,0,0,0.1,0,0.1l-1.7,15.6l9.4-1.6C204.1,214.6,204.2,214.6,204.2,214.6z M202.9,205.7c-0.3,0-0.6-0.1-0.8-0.4       c-3.3-4.3-3.7-10.6-3.6-14c0-0.5,0.4-0.9,1-0.9c7.3,0,12.8-7.2,12.9-7.2c0.2-0.2,0.5-0.4,0.8-0.4c0,0,0,0,0,0       c0.3,0,0.6,0.1,0.8,0.4c0.1,0.1,5.6,7.2,12.9,7.2c0.5,0,0.9,0.4,1,0.9c0.2,6-1.1,10.8-3.6,14c-0.3,0.4-0.9,0.5-1.4,0.2       c-0.4-0.3-0.5-0.9-0.2-1.4c1.5-1.9,3.2-5.4,3.2-11.8c-6.2-0.5-10.9-5.1-12.7-7.1c-1.8,2-6.5,6.6-12.7,7.1       c0,3.3,0.5,8.4,3.2,11.9c0.3,0.4,0.3,1-0.2,1.4C203.4,205.7,203.1,205.7,202.9,205.7z" />
				</g>
				<g>
					<g>
						<path fill="#3A3D3E" d="M218.9,197.2c-1,0-1.9-0.8-1.9-1.9s0.8-1.9,1.9-1.9s1.9,0.9,1.9,1.9S220,197.2,218.9,197.2z         M219,195.3L219,195.3C219,195.4,219,195.4,219,195.3z" />
					</g>
					<g>
						<path fill="#3A3D3E" d="M207.1,197.2c-1,0-1.9-0.8-1.9-1.9s0.9-1.9,1.9-1.9s1.9,0.9,1.9,1.9S208.1,197.2,207.1,197.2z         M207.1,195.3L207.1,195.3C207.1,195.4,207.1,195.4,207.1,195.3z" />
					</g>
				</g>
				<g>
					<path fill="#3A3D3E" d="M201.6,211c-0.2,0-0.4-0.1-0.6-0.2c-0.3-0.2-0.4-0.5-0.4-0.8c0.2-3.5,2.2-10,8.6-10c2,0,3.2,0.6,4,1.3       c0.8-0.7,2.1-1.3,4-1.3c6.4,0,8.4,6.6,8.6,10c0,0.3-0.1,0.6-0.4,0.8c-0.3,0.2-0.6,0.2-0.9,0.1c-0.1,0-7.4-2.6-11.3-3.9       c-4,1.4-11.3,3.9-11.3,3.9C201.8,211,201.7,211,201.6,211z M209.2,201.9c-4.6,0-6,4.4-6.4,6.7c2.4-0.9,7.3-2.6,10.2-3.5       c0.2-0.1,0.4-0.1,0.6,0c2.8,0.9,7.7,2.7,10.2,3.5c-0.4-2.4-1.9-6.7-6.4-6.7c-1.6,0-2.7,0.4-3.2,1.3c-0.3,0.6-1.3,0.6-1.6,0       C211.8,202.3,210.8,201.9,209.2,201.9z" />
				</g>
				<g>
					<path fill="#3A3D3E" d="M213.2,213.2c-4.5,0-8-2.1-8-4.9h1.6c0,1.5,2.6,3.3,6.4,3.3s6.4-1.7,6.4-3.3h1.6       C221.2,211.1,217.7,213.2,213.2,213.2z" />
				</g>
			</g>
		</g>
	</g>
	
</svg>