<?xml version="1.0" encoding="utf-8"?>
<svg xmlns="http://www.w3.org/2000/svg" viewBox="0 0 96 96" width="96" height="96">
  <g id="mae-rainha">
    <!-- Fundo verde -->
    <circle fill="#AED6F1" cx="48" cy="48" r="48"/>

    <!-- FILLS -->

    <!-- Manto azul (corpo) -->
    <path fill="#4A90D9" d="M28,80 C28,65 35,57 48,54 C61,57 68,65 68,80 Z"/>

    <!-- Rosto -->
    <ellipse fill="#F5C5A3" cx="48" cy="38" rx="10" ry="12"/>

    <!-- Cabelo / véu marrom escuro -->
    <path fill="#5C3D1E" d="M38,35 C38,25 43,21 48,21 C53,21 58,25 58,35 C58,28 55,24 48,24 C41,24 38,28 38,35 Z"/>
    <path fill="#5C3D1E" d="M36,38 C34,42 33,48 33,54 L28,80 C28,80 36,74 36,54 Z"/>
    <path fill="#5C3D1E" d="M60,38 C62,42 63,48 63,54 L68,80 C68,80 60,74 60,54 Z"/>

    <!-- Coroa dourada -->
    <!-- Base da coroa -->
    <rect fill="#F5C842" x="35" y="18" width="26" height="7" rx="2"/>
    <!-- Pontas da coroa -->
    <polygon fill="#F5C842" points="35,18 38,10 41,18"/>
    <polygon fill="#F5C842" points="45,18 48,8 51,18"/>
    <polygon fill="#F5C842" points="55,18 58,10 61,18"/>
    <!-- Joias da coroa -->
    <circle fill="#E63946" cx="39.5" cy="14" r="1.8"/>
    <circle fill="#4A90D9" cx="48" cy="12" r="2"/>
    <circle fill="#E63946" cx="56.5" cy="14" r="1.8"/>

    <!-- Auréola dourada -->
    <circle fill="none" stroke="#F5C842" stroke-width="1.8" cx="48" cy="36" r="14"/>

    <!-- Mãos juntas em oração -->
    <path fill="#F5C5A3" d="M43,62 C42,60 41,56 42,54 C43,53 44,53 45,54 L46,62 Z"/>
    <path fill="#F5C5A3" d="M53,62 C54,60 55,56 54,54 C53,53 52,53 51,54 L50,62 Z"/>
    <ellipse fill="#F5C5A3" cx="48" cy="63" rx="5" ry="3"/>

    <!-- LINHAS / CONTORNOS -->

    <!-- Contorno rosto -->
    <path fill="#3A3D3E" d="M48,51.5c-7.4,0-11-5.4-11-13.5c0-6.1,4.9-11,11-11s11,4.9,11,11C59,46.1,55.4,51.5,48,51.5z
      M48,29c-4.9,0-9,4-9,9c0,7.1,3.1,11.5,9,11.5s9-4.4,9-11.5C57,33,52.9,29,48,29z"/>

    <!-- Contorno coroa -->
    <path fill="#3A3D3E" d="M61,26h-26c-1.1,0-2-0.9-2-2v-7c0-1.1,0.9-2,2-2h0.2l2.8-8.4c0.2-0.5,0.6-0.8,1.1-0.8
      c0.5,0,0.9,0.3,1.1,0.8L43,15.5l2.8-8.4c0.2-0.5,0.6-0.8,1.1-0.8h2.2c0.5,0,0.9,0.3,1.1,0.8L53,15.5l2.8-8.3
      c0.2-0.5,0.6-0.8,1.1-0.8c0.5,0,0.9,0.3,1.1,0.8L60.8,15H61c1.1,0,2,0.9,2,2v7C63,25.1,62.1,26,61,26z
      M37,24h22v-5H37V24z M55.9,17h2.7l-1.7-5.2L55.9,17z M44.6,17h6.8L48,8.6L44.6,17z M37.4,17h2.7l-1.7-5.2L37.4,17z"/>

    <!-- Contorno manto -->
    <path fill="#3A3D3E" d="M68,81H28c-0.5,0-1-0.4-1-1c0-15.2,7-24.1,20.4-27c0.4-0.1,0.8,0,1.1,0.3
      C62.1,56,69,64.9,69,80C69,80.6,68.5,81,68,81z M29.1,79h37.8c-0.7-12.8-6.8-20.3-18.9-23
      C36,58.7,29.8,66.2,29.1,79z"/>

    <!-- Auréola contorno -->
    <path fill="#3A3D3E" d="M48,52c-8.8,0-16-7.2-16-16s7.2-16,16-16s16,7.2,16,16S56.8,52,48,52z
      M48,22c-7.7,0-14,6.3-14,14s6.3,14,14,14s14-6.3,14-14S55.7,22,48,22z"/>
  </g>
</svg>
