<?xml version="1.0" encoding="utf-8"?>
<svg xmlns="http://www.w3.org/2000/svg" xmlns:xlink="http://www.w3.org/1999/xlink"
     viewBox="289.1 262.2 96.4 96.4"
     width="96" height="96">
<g xmlns="http://www.w3.org/2000/svg" id="egg-bow_1_">
		<g id="label_21_">
			<circle fill="#98E1A0" cx="337.3" cy="310.4" r="48.2" />
		</g>
		<g id="egg-bow">
			<g id="fill_18_">
				<g>
					<path fill="#98E1A0" d="M343.6,316.8c-2.1-1.5-4.9-4.1-5.7-5.2l-0.8-1l1.7-0.6c0.4-0.1,0.7-0.4,1-0.8l0.4-0.6l0.7,0.2       c0.6,0.2,1.2,0.3,1.8,0.4l0.7,0.1l0.2,0.6c0.4,0.3,1.5,1.5,3.3,3.6l1.4,1.6l-3,0.1c0,0.1,0,0.5,0,1.1l0.1,2L343.6,316.8z" />
				</g>
				<g>
					<path fill="#98E1A0" d="M334.9,319.7c-0.3-0.4-0.6-0.8-0.7-0.8l-0.8,0.6l-1.6,1.3l0.1-2.1c0.1-2.8,0.2-4.4,0.3-4.9l-0.3-0.6       l0.4-0.5c0.4-0.4,0.8-0.9,1.1-1.4l0.4-0.6l0.7,0.3c0.2,0.1,0.4,0.1,0.6,0.1c0.2,0,0.4,0,0.6-0.1l1.7-0.6l0.1,1.3       c0.1,1.4-0.4,5.2-1,7.7l-0.5,1.9L334.9,319.7z" />
				</g>
				<g>
					<path fill="#FF9406" d="M318.1,315.3l0-0.2c0-0.1,0-0.2,0-0.3c0-1.1,0-2.1,0.1-3.3l0-0.6l0.7-0.2l0,0l5-1.9l1.9,5.2l-7.7,2.8       L318.1,315.3z" />
				</g>
				<g>
					<path fill="#98E1A0" d="M328.2,315.3c-0.2,0-0.4,0-0.6-0.1c-0.3-0.1-0.9-0.4-1.3-0.7h-0.2l-0.2-0.6l-0.1-0.2v-0.1l-2.2-6.2       c-0.3-0.7,0.2-1.7,0.5-2.2c0.3-0.6,1.1-1,1.4-1.2l0.1-0.1l0.2,0c0.4,0,0.8-0.1,1.2-0.1c1.8,0,3.5,0.3,4.6,0.6l0.9,0.2l-0.2,0.9       c-0.1,0.4-0.1,0.7,0.1,1.1l1.1,2.9c0,0.1,0.1,0.2,0.2,0.3l0.3,0.5l-0.3,0.5c-0.7,1-1.7,2.3-3.7,3.6       C329.4,315.1,328.7,315.3,328.2,315.3L328.2,315.3z" />
				</g>
				<g>
					<path fill="#FF9406" d="M335.2,311.1c-0.8,0-1.5-0.5-1.8-1.2l-1.1-2.9c-0.2-0.5-0.1-1,0.1-1.4c0.2-0.5,0.6-0.8,1.1-1l2.9-1.1       c0.2-0.1,0.4-0.1,0.6-0.1c0.8,0,1.5,0.5,1.8,1.2l1.1,2.9c0.2,0.5,0.2,1-0.1,1.4c-0.2,0.5-0.6,0.8-1.1,1l-2.9,1.1       C335.6,311.1,335.4,311.1,335.2,311.1L335.2,311.1z" />
				</g>
				<g>
					<path fill="#98E1A0" d="M344.2,309.1c-1.5,0-2.7-0.3-3.5-0.5l-0.6-0.2l-0.1-0.6c0-0.1,0-0.2-0.1-0.3l-1.1-2.9       c-0.1-0.3-0.4-0.6-0.7-0.9l-0.8-0.6l0.6-0.8c0.9-1.3,2.4-3,4.1-4.2l0.1-0.1l0.1,0c0.3-0.1,0.7-0.1,1-0.1c0.3,0,0.6,0,0.8,0.1       c0.5,0.2,1.5,0.7,1.8,1.4l2.3,6.3c0.3,0.7-0.2,1.7-0.5,2.2c-0.4,0.6-1.3,1.1-1.9,1.2C345.3,309.1,344.7,309.1,344.2,309.1       L344.2,309.1z" />
				</g>
				<g>
					<path fill="#FF9406" d="M346.2,300.2l6.9-2.6l0.3,0.9c0.4,1.1,0.8,2.3,1.1,3.4l0.2,0.9l-6.7,2.5L346.2,300.2z" />
				</g>
				<g>
					<path fill="#FFFFFF" d="M318.5,309.3c1.7-13.2,9.1-26.9,18.8-26.9c6,0,11.6,5.2,15.4,14.2l0.4,0.9l-6.8,2.6l-0.4-0.8       c-0.3-0.6-1.1-1.1-1.7-1.3c-0.2-0.1-0.5-0.1-0.8-0.1c-0.5,0-0.9,0.1-1.2,0.2c-2.3,1.5-4.1,4.1-4.6,4.8l-0.3,0.4l-0.4,0       c-0.2,0-0.3,0-0.4,0.1l-2.9,1.1c-0.1,0-0.3,0.1-0.4,0.2l-0.4,0.3l-0.4-0.1c-0.8-0.2-3-0.8-5.3-0.8c-0.5,0-0.9,0-1.3,0.1       c-0.5,0.2-1.2,0.7-1.6,1.2c-0.4,0.6-0.7,1.6-0.5,2.2l0.4,1.2l-5.7,2.2L318.5,309.3z" />
				</g>
				<g>
					<path fill="#FFFFFF" d="M337.3,338.3c-10.9,0-18.2-8-19-21l-0.1-0.8l0.9-0.2l6.7-2.5l0.4,0.5c0.4,0.4,1,0.7,1.4,0.9       c0.2,0.1,0.4,0.1,0.6,0.1c0.6,0,1.3-0.2,1.6-0.5c0.2-0.2,0.4-0.3,0.7-0.5l1.7-1.2l-0.1,2.1c-0.1,1.9-0.2,5-0.2,5.6l2.4-1.9       l0.6,0.7c0.6,0.7,1,1.3,1.2,1.7c0.6-1.4,1.3-4.9,1.5-7.6l0.2-2l1.5,1.4c1.9,1.9,4.8,4.2,6.1,4.9c-0.1-0.6-0.1-1.4-0.2-2l0-1       l3-0.1c-0.4-0.4-2.4-2.7-3.8-4.1l-1.4-1.5l2.1-0.1c0.3,0,0.5,0,0.8-0.1c0.6-0.1,1.6-0.6,1.9-1.2c0.3-0.5,0.6-1.2,0.5-1.9       l-0.1-0.7l6.6-2.5l0.3,1.1c0.9,3.7,1.4,7.5,1.4,11C356.4,329.1,348.9,338.3,337.3,338.3L337.3,338.3z" />
				</g>
			</g>
			<g id="line_19_">
				<g>
					<g>
						<path fill="#3A3D3E" d="M337.3,339.3c-12.2,0-20.1-9.6-20.1-24.5c0-7.7,2.1-16,5.7-22.4c3.9-7,9.1-10.9,14.4-10.9        c5.3,0,10.5,3.9,14.4,10.9c3.6,6.4,5.7,14.8,5.7,22.4C357.4,329.7,349.5,339.3,337.3,339.3z M337.3,283.4        c-8.4,0-18.2,13.7-18.2,31.4c0,13.7,7.1,22.6,18.2,22.6s18.2-8.9,18.2-22.6C355.4,297.1,345.7,283.4,337.3,283.4z" />
					</g>
				</g>
				<g>
					<g>
						<path fill="#3A3D3E" d="M335.2,312.1c-1.2,0-2.3-0.7-2.7-1.9l-1.1-2.9c-0.3-0.7-0.2-1.5,0.1-2.2c0.3-0.7,0.9-1.2,1.6-1.5        l2.9-1.1c1.5-0.5,3.1,0.2,3.7,1.7l1.1,2.9c0.5,1.5-0.2,3.1-1.7,3.7l-2.9,1.1C335.8,312,335.5,312.1,335.2,312.1z M337.1,304.3        c-0.1,0-0.2,0-0.3,0.1l-2.9,1.1c-0.2,0.1-0.4,0.3-0.5,0.5s-0.1,0.5,0,0.7l1.1,2.9c0.2,0.5,0.7,0.7,1.2,0.6l2.9-1.1        c0.5-0.2,0.7-0.7,0.6-1.2c0,0,0,0,0,0l-1.1-2.9C337.8,304.5,337.4,304.3,337.1,304.3z" />
					</g>
					<g>
						<path fill="#3A3D3E" d="M328.2,316.2c-0.3,0-0.6,0-0.9-0.1c-0.9-0.3-2-1-2.4-2l-2.3-6.3c-0.4-1,0.1-2.2,0.5-3        c0.5-0.8,1.4-1.4,2.1-1.6c0.1,0,0.1,0,0.2-0.1c3-0.3,6.3,0.5,7.2,0.8c0.5,0.2,0.8,0.7,0.6,1.2c-0.2,0.5-0.7,0.8-1.2,0.6        c-0.6-0.2-3.6-1-6.3-0.8c-0.3,0.1-0.8,0.5-1,0.8c-0.3,0.5-0.5,1.1-0.4,1.3l2.3,6.3c0.1,0.2,0.6,0.6,1.1,0.8        c0.3,0.1,1,0,1.4-0.3c2.1-1.4,3-2.8,3.5-3.6l0.8,0.5l0.8,0.6c-0.5,0.8-1.7,2.5-4.1,4.1C329.9,316,329,316.2,328.2,316.2z" />
					</g>
					<g>
						<path fill="#3A3D3E" d="M332,308.1C332,308.1,332,308.1,332,308.1l-2.8-0.1c-0.5,0-0.9-0.5-0.9-1s0.5-0.9,1-0.9l2.8,0.1        c0.5,0,0.9,0.5,0.9,1C332.9,307.7,332.5,308.1,332,308.1z" />
					</g>
					<g>
						<path fill="#3A3D3E" d="M330.5,311.6c-0.3,0-0.6-0.1-0.8-0.4c-0.3-0.4-0.3-1,0.2-1.4l2.1-1.7c0.4-0.3,1-0.3,1.4,0.2        c0.3,0.4,0.3,1-0.2,1.4l-2.1,1.7C330.9,311.5,330.7,311.6,330.5,311.6z" />
					</g>
					<g>
						<path fill="#3A3D3E" d="M344.2,310.1c-1.9,0-3.3-0.4-4-0.6c-0.5-0.1-0.8-0.7-0.7-1.2s0.7-0.8,1.2-0.7l0,0        c0.9,0.3,2.5,0.7,5,0.4c0.4-0.1,1.1-0.4,1.2-0.7c0.3-0.5,0.5-1.1,0.4-1.3l-2.3-6.3c-0.1-0.2-0.6-0.6-1.2-0.8        c-0.4-0.1-0.9-0.1-1.3,0c-2.2,1.5-4,4.1-4.3,4.6c-0.3,0.4-0.9,0.6-1.3,0.3c-0.4-0.3-0.6-0.9-0.3-1.3c0.5-0.8,2.5-3.6,5-5.3        c0.1,0,0.1-0.1,0.2-0.1c0.7-0.2,1.8-0.4,2.6-0.1c0.9,0.3,2,1,2.4,2l2.3,6.3c0.4,1-0.1,2.2-0.6,3c-0.6,0.9-1.8,1.5-2.6,1.6        C345.3,310.1,344.7,310.1,344.2,310.1z" />
					</g>
					<g>
						<path fill="#3A3D3E" d="M339.2,305.4c-0.3,0-0.5-0.1-0.7-0.3c-0.4-0.4-0.3-1,0.1-1.4l2.1-1.9c0.4-0.4,1-0.3,1.4,0.1        s0.3,1-0.1,1.4l-2.1,1.9C339.7,305.4,339.4,305.4,339.2,305.4z" />
					</g>
					<g>
						<path fill="#3A3D3E" d="M339.9,307.2c-0.5,0-0.9-0.4-1-0.9c0-0.5,0.4-1,0.9-1l2.7-0.1c0.5,0,1,0.4,1,0.9c0,0.5-0.4,1-0.9,1        L339.9,307.2C339.9,307.2,339.9,307.2,339.9,307.2z" />
					</g>
					<g>
						<path fill="#3A3D3E" d="M345.3,318.9c-0.2,0-0.3,0-0.4-0.1c-2.2-1.2-7.6-5.9-8.2-7.3c-0.2-0.5,0.1-1.1,0.6-1.2        c0.5-0.2,1,0.1,1.2,0.6c0.3,0.7,3.4,3.6,5.7,5.2c0-0.6,0-1.1,0-1.1c0-0.5,0.4-0.9,0.9-1l1,0c-1.4-1.5-2.9-3.1-3.2-3.4        c-0.4-0.3-0.5-0.9-0.2-1.4c0.3-0.4,0.9-0.5,1.4-0.2c0.8,0.6,4.2,4.5,4.9,5.2c0.2,0.3,0.3,0.7,0.2,1c-0.1,0.3-0.5,0.6-0.9,0.6        l-2.1,0.1c0,0.6,0.1,1.4,0.1,1.9c0.1,0.4-0.1,0.7-0.4,1C345.7,318.8,345.5,318.9,345.3,318.9z" />
					</g>
					<g>
						<path fill="#3A3D3E" d="M336,322.3c-0.3,0-0.7-0.2-0.8-0.5c-0.2-0.4-0.7-1-1.1-1.5l-1.6,1.3c-0.3,0.2-0.7,0.3-1,0.1        c-0.3-0.2-0.5-0.5-0.5-0.9c0-1,0.2-6.2,0.4-7.1c0.1-0.5,0.6-0.9,1.1-0.7c0.5,0.1,0.9,0.6,0.7,1.1c-0.1,0.5-0.2,2.7-0.3,4.7        l0.8-0.6c0.4-0.3,1-0.3,1.3,0.1c0,0,0.3,0.4,0.7,0.9c0.7-2.8,1.2-6.9,1-7.7c-0.1-0.5,0.1-1,0.6-1.2c0.5-0.2,1,0.1,1.2,0.6        c0.5,1.4-0.6,8.5-1.6,10.8C336.8,322,336.4,322.2,336,322.3C336,322.3,336,322.3,336,322.3z" />
					</g>
				</g>
				<g>
					<path fill="#3A3D3E" d="M348.4,306.1c-0.4,0-0.8-0.2-0.9-0.6c-0.2-0.5,0.1-1.1,0.6-1.2l6-2.3c0.5-0.2,1.1,0.1,1.2,0.6       s-0.1,1.1-0.6,1.2l-6,2.3C348.6,306.1,348.5,306.1,348.4,306.1z" />
				</g>
				<g>
					<path fill="#3A3D3E" d="M318.9,317.3c-0.4,0-0.8-0.2-0.9-0.6c-0.2-0.5,0.1-1.1,0.6-1.2l6.9-2.6c0.5-0.2,1.1,0.1,1.2,0.6       c0.2,0.5-0.1,1.1-0.6,1.2l-6.9,2.6C319.2,317.3,319.1,317.3,318.9,317.3z" />
				</g>
				<g>
					<path fill="#3A3D3E" d="M346.6,301c-0.4,0-0.8-0.2-0.9-0.6c-0.2-0.5,0.1-1.1,0.6-1.2l6.3-2.4c0.5-0.2,1.1,0.1,1.2,0.6       c0.2,0.5-0.1,1.1-0.6,1.2l-6.3,2.4C346.8,301,346.7,301,346.6,301z" />
				</g>
				<g>
					<path fill="#3A3D3E" d="M318.9,311.6c-0.4,0-0.8-0.2-0.9-0.6c-0.2-0.5,0.1-1.1,0.6-1.2l4.8-1.9c0.5-0.2,1.1,0.1,1.2,0.6       c0.2,0.5-0.1,1.1-0.6,1.2l-4.8,1.9C319.2,311.5,319.1,311.6,318.9,311.6z" />
				</g>
			</g>
		</g>
	</g>
	
</svg>