<?xml version="1.0" encoding="utf-8"?>
<svg xmlns="http://www.w3.org/2000/svg" xmlns:xlink="http://www.w3.org/1999/xlink"
     viewBox="164.5 26.4 96.4 96.4"
     width="96" height="96">
<g xmlns="http://www.w3.org/2000/svg" id="christian-fish_1_">
		<g id="label_8_">
			<circle fill="#FFCD4F" cx="212.7" cy="74.6" r="48.2" />
		</g>
		<g id="christian-fish">
			<g id="fill_8_">
				<g>
					<path fill="#915E45" d="M237.2,89.1c-0.2,0-0.5-0.1-0.7-0.3L226.9,78c-5.7,4.8-12.7,7.4-20,7.4c-8.7,0-15.8-3.6-21.9-10.1       c-0.2-0.2-0.3-0.5-0.3-0.8s0.1-0.6,0.3-0.8c6.1-6.5,13.2-10.1,21.9-10.1c7.3,0,14.4,2.7,20.1,7.5l9.5-10.6       c0.2-0.2,0.4-0.3,0.7-0.3s0.5,0.1,0.7,0.3l2.3,2.6c0.6,0.7,0.6,1.7,0,2.4l-8.2,9.1l8.2,9.1c0.6,0.7,0.6,1.7,0,2.4l-2.3,2.6       C237.7,89,237.5,89.1,237.2,89.1z" />
				</g>
				<g>
					<path fill="#FFCD4F" d="M206.9,80c-5.8,0-10.8-1.9-15.4-5.4c-0.1-0.1-0.1-0.2,0-0.3c4.6-3.5,9.6-5.4,15.4-5.4       c5.9,0,11.5,1.9,16.1,5.5C218.4,78.1,212.8,80,206.9,80z" />
				</g>
			</g>
			<g id="line_9_">
				<g>
					<path fill="#3A3D3E" d="M206.9,81c-5.8,0-11-1.8-16-5.6c-0.3-0.2-0.4-0.5-0.4-0.9c0-0.4,0.2-0.7,0.4-0.9       c4.9-3.8,10.1-5.6,16-5.6c6.1,0,11.8,2,16.7,5.7l1,0.8l-1,0.8C218.8,79,213,81,206.9,81z M193,74.5c4.3,3.1,8.9,4.5,13.9,4.5       c5.2,0,10.2-1.6,14.5-4.5c-4.3-3-9.3-4.5-14.5-4.5C201.9,70,197.3,71.5,193,74.5z" />
				</g>
				<g>
					<path fill="#3A3D3E" d="M237.2,90.1c-0.5,0-1-0.2-1.4-0.6l-9-10.1c-5.7,4.5-12.7,7-19.9,7c-8.7,0-16-3.4-22.6-10.4       c-0.4-0.4-0.6-0.9-0.6-1.4s0.2-1.1,0.6-1.4c6.5-7,13.9-10.4,22.6-10.4c7.2,0,14.3,2.5,20,7.1l8.9-9.9c0.7-0.8,2.1-0.8,2.8,0       l2.3,2.6c0.9,1,0.9,2.6,0,3.7l-7.6,8.5l7.6,8.5c0.9,1,0.9,2.6,0,3.7l-2.3,2.6C238.3,89.8,237.8,90.1,237.2,90.1z M237.3,88.1       L237.3,88.1L237.3,88.1z M226.9,77.1c0.3,0,0.5,0.1,0.7,0.3l9.6,10.7l2.3-2.6c0.3-0.3,0.3-0.8,0-1.1l-8.2-9.1       c-0.3-0.4-0.3-0.9,0-1.3l8.2-9.1c0.3-0.3,0.3-0.8,0-1.1l-2.3-2.6l-9.4,10.6c-0.3,0.4-0.9,0.4-1.3,0.1       c-5.5-4.7-12.4-7.3-19.5-7.3c-8.1,0-15,3.2-21.2,9.8c0,0,0,0.1,0,0.1s0,0.1,0,0.1c6.2,6.6,13.1,9.8,21.2,9.8       c7,0,13.9-2.5,19.4-7.2C226.5,77.1,226.7,77.1,226.9,77.1z" />
				</g>
			</g>
		</g>
	</g>
	
</svg>