<?xml version="1.0" encoding="utf-8"?>
<svg xmlns="http://www.w3.org/2000/svg" xmlns:xlink="http://www.w3.org/1999/xlink"
     viewBox="413.6 144.3 96.4 96.4"
     width="96" height="96">
<g xmlns="http://www.w3.org/2000/svg" id="dove">
		<g id="label_1_">
			<circle fill="#98E1A0" cx="461.8" cy="192.5" r="48.2" />
		</g>
		<g id="bird">
			<g id="fill_1_">
				<g>
					<path fill="#FFFFFF" d="M466.9,185.2c-1.4,0-2.2-0.7-2.4-0.9c-5.3-5.5-8.4-5.7-8.4-5.7l-0.8-0.1L455,178       c-0.7-2,2.6-8.9,4.4-12.3l1.6-3l0.2,3.4c0.5,6.5,6.4,12,7.1,12.6l0.1,0.1l0.1,0.1c2.7,3.4,1.2,5.1,1,5.3l-0.1,0.4l-0.5,0.2       C468.2,185.1,467.5,185.2,466.9,185.2L466.9,185.2z" />
				</g>
				<g>
					<path fill="#FFFFFF" d="M449.3,222c-0.3-0.3-0.6-1-0.8-1.8c0,0-1,0.7-1.8,0.8l-0.5,0l-0.3-0.3c-0.3-0.3-0.5-1-0.4-2       c0,0-0.7,0.3-1.3,0.3c-0.1,0-0.2,0-0.3,0l0.1-0.9l-1,0.3c-0.2-0.4-0.1-1.1,0.3-2c-0.1,0-0.4,0-0.8,0c-0.5,0-0.9-0.1-1.3-0.2       l-1.1-0.3l0.5-1c0.2-0.3,0.4-0.7,0.8-1.1c-0.5-0.2-1.3-0.5-1.7-0.9l-0.7-0.7l0.6-0.7c0.3-0.3,0.7-0.6,1.3-0.9l0.1,0l0.1,0       c8.8-2.3,15-5.3,15.3-7.3l0-0.1l0-0.1c0.1-0.4,1.3-3.8,3.2-4.6c-5.9-7.4-13.2-17.3-15.5-21.5l-1.8-3.4l3.3,2.1       c1.6,1,4.9,2.7,9.7,3.1l0.1,0l0.1,0.1c0.1,0,0.1,0,0.2,0.1l0.2-0.1l0.2,0c0.8,0.1,3.6,0.9,8.2,5.7c0.1,0.1,0.8,0.9,2.4,0.9       c1,0,2-0.3,3.2-1c0.2-0.1,5.3-3.8,8.2-3.8c0.3,0,0.6,0.1,0.9,0.2c1.1,0.5,2.8,1.7,3.9,2.6l1.4,1.2l-1.8,0.5       c-2.4,0.7-5.4,2.7-6.2,7.7c0,0.1-1.5,11-13.7,13.2l-0.1,0c-0.3,0-2.1,0.3-3.3,3.4c0,0.1-2.3,5.3-7.7,12c-0.2,0.3-0.8,1-1.4,1.1       l-0.6,0.2L449.3,222z" />
				</g>
			</g>
			<g id="line_2_">
				<g>
					<path fill="#3A3D3E" d="M469.5,185.2c-0.3,0-0.6-0.1-0.8-0.3c-0.4-0.4-0.3-1.1,0.1-1.4c0,0,1.1-1.2-1-4       c-0.8-0.7-7-6.4-7.4-13.3c-2.9,5.4-4.9,10.7-4.3,11.6c0.5,0.1,0.9,0.6,0.8,1.1c-0.1,0.5-0.6,0.9-1.2,0.8       c-0.6-0.1-1.2-0.5-1.4-1.1c-1.3-2.8,3.2-11.3,4.6-13.9c0.3-0.6,1.1-2,2.3-1.8c0.8,0.1,1.2,0.9,1.2,1.5c0,0.1,0,0.1,0,0.2       c-0.4,6.9,6.8,13.2,6.8,13.3c0,0,0.1,0.1,0.1,0.1c3.5,4.4,1,6.7,0.9,6.8C470,185.1,469.7,185.2,469.5,185.2z" />
				</g>
				<g>
					<path fill="#3A3D3E" d="M450,223.3c-0.1,0-0.3,0-0.4,0c-0.9-0.2-1.4-0.9-1.7-1.6c-0.7,0.3-1.5,0.4-2.3,0       c-0.6-0.3-1-0.9-1.1-1.8c-0.7,0.1-1.5,0-2.1-0.6c-0.5-0.5-0.7-1.1-0.5-2c-0.9-0.1-1.9-0.3-2.3-1.2c-0.4-0.7-0.1-1.5,0.2-2.1       c-0.7-0.4-1.4-1-1.4-1.9c-0.1-1.5,1.7-2.3,2.3-2.6c0.1,0,0.1,0,0.2-0.1c6.9-1.8,14.5-4.9,14.7-6.6c0-0.1,0-0.1,0-0.2       c0.1-0.4,1.1-3.2,2.7-4.6c-17.3-21.9-16-23.5-15.5-24.2c0.3-0.4,1-0.7,2.2-0.1c0.1,0,0.1,0.1,0.2,0.1c0,0,4.2,3.4,11,3.8       c0.3,0,3.6,0.3,9.1,6c0.1,0.1,1.4,1.4,4.2-0.3c1.1-0.8,7.2-5,10.1-3.7c1.5,0.6,5.1,3.1,5.7,4.5c0.1,0.3,0.1,0.7,0,1       c-0.2,0.3-0.5,0.5-0.8,0.5c-0.2,0-5.9,0.4-6.9,7.1c0,0.1-1.7,11.8-14.6,14.1c-0.1,0-0.1,0-0.2,0c0,0-1.4,0.1-2.4,2.8       c-0.1,0.3-2.4,5.5-7.8,12.2C452.3,221.9,451.3,223.3,450,223.3z M448.5,219.1c0.1,0,0.2,0,0.4,0.1c0.3,0.1,0.6,0.4,0.6,0.7       c0.2,1.1,0.5,1.3,0.5,1.3c0.1,0,0.6-0.4,0.9-0.8c5.3-6.5,7.5-11.6,7.6-11.7c1.4-3.6,3.6-4,4.2-4c11.5-2.1,12.9-12.3,12.9-12.4       c0.9-5.7,4.6-7.7,6.9-8.5c-1.1-0.9-2.7-2-3.7-2.4c-1.4-0.6-5.7,1.8-8.2,3.6c-4.4,2.6-6.7,0.1-6.8,0c-4.9-5.1-7.7-5.4-7.7-5.4       c-5.3-0.3-9.1-2.2-10.9-3.4c2.1,3.8,8.8,13.1,15.4,21.3c0.2,0.2,0.3,0.6,0.2,0.9c-0.1,0.3-0.3,0.6-0.6,0.7       c-1.2,0.5-2.3,3.1-2.6,4c-0.7,3.8-12.3,7.2-16.1,8.2c-0.6,0.3-0.9,0.5-1,0.6c0.2,0.2,0.8,0.5,1.2,0.7c0.3,0.1,0.6,0.4,0.7,0.7       c0.1,0.3,0,0.7-0.2,0.9c-0.4,0.4-0.6,0.7-0.6,0.8c0.3,0.1,1.1,0.1,1.6,0.1c0.3,0,0.7,0.1,0.9,0.4c0.2,0.3,0.3,0.7,0.1,1       c-0.4,1-0.3,1.3-0.2,1.3c0.1,0.1,0.8,0,1.3-0.2c0.3-0.1,0.7-0.1,1,0.1c0.3,0.2,0.4,0.5,0.4,0.9c-0.1,1,0.1,1.2,0.1,1.2       c0.2,0,0.8-0.2,1.3-0.6C448.1,219.2,448.3,219.1,448.5,219.1z" />
				</g>
				<g>
					<path fill="#3A3D3E" d="M478.2,184.2c-0.6,0-1-0.5-1-1s0.4-1,1-1h0c0.6,0,1,0.5,1,1S478.8,184.2,478.2,184.2z" />
				</g>
			</g>
		</g>
	</g>
	
</svg>