<?xml version="1.0" encoding="utf-8"?>
<svg xmlns="http://www.w3.org/2000/svg" xmlns:xlink="http://www.w3.org/1999/xlink"
     viewBox="413.6 262.2 96.4 96.4"
     width="96" height="96">
<g xmlns="http://www.w3.org/2000/svg" id="candle-stick_1_">
		<g id="label_34_">
			<circle fill="#FFCD4F" cx="461.8" cy="310.4" r="48.2" />
		</g>
		<g id="candle-stick">
			<g id="fill_27_">
				<g>
					<circle fill="#FFFFFF" cx="461.8" cy="298" r="14.5" />
				</g>
				<g>
					<path fill="#FF9406" d="M461.8,304.7l-1.2-0.3c-0.6-0.2-1.1-0.5-1.3-0.9c-0.7-1.4,0.7-3.8,1.6-5.1l0.8-1.2l0.8,1.2       c2.1,3,2.1,4.5,1.8,5.2c-0.2,0.5-0.7,0.8-1.3,0.9L461.8,304.7L461.8,304.7z" />
				</g>
				<g>
					<path fill="#FFC023" d="M457.8,304c-0.7-0.3-1.2-0.7-1.4-1.1c-1.4-2.7,3.1-10.3,4.6-12.5l0.8-1.3l0.8,1.3       c1.5,2.3,6.1,10,4.4,12.5c-0.2,0.4-0.6,0.7-1.2,0.9l-1.5,0.7l0.1-1.6c0.1-1.2-0.8-3.1-2.7-5.6c-1.3,1.6-2.8,4.1-2.6,5.7       l0.2,1.6L457.8,304z" />
				</g>
				<g>
					<rect x="454.9" y="308.5" fill="#98E1A0" width="13.8" height="21.8" />
					<path fill="#3A3D3E" d="M468.7,330.7h-13.8c-0.3,0-0.5-0.2-0.5-0.5v-21.8c0-0.3,0.2-0.5,0.5-0.5h13.8c0.3,0,0.5,0.2,0.5,0.5       v21.8C469.2,330.5,469,330.7,468.7,330.7z M455.4,329.7h12.9V309h-12.9V329.7z" />
				</g>
				<g>
					<polygon fill="#915E45" points="447.1,339.5 444.6,330.2 479,330.2 476.5,339.5      " />
				</g>
			</g>
			<g id="line_28_">
				<g>
					<g>
						<g>
							<g>
								<path fill="#3A3D3E" d="M461.5,305.5c-0.3,0-0.5,0-0.8,0c-1.5-0.1-4.3-0.5-5.2-2.2c0,0,0,0,0,0c-1.9-3.6,4.2-12.9,5.4-14.7          c0.2-0.3,0.5-0.4,0.8-0.4c0,0,0,0,0,0c0.3,0,0.6,0.2,0.8,0.4c1.3,1.9,7.6,11.4,5.2,14.8          C466.8,304.9,464.1,305.5,461.5,305.5z M457.3,302.4c0.3,0.5,1.5,1.1,3.6,1.2c2.6,0.1,4.9-0.5,5.4-1.3          c1.1-1.6-1.8-7.3-4.4-11.5C459.2,295,456.4,300.7,457.3,302.4L457.3,302.4z" />
							</g>
							<g>
								<path fill="#3A3D3E" d="M462.1,305.5c-0.2,0-0.3,0-0.4,0c-1.6,0-2.7-0.5-3.2-1.6c-1.2-2.4,1.9-6.5,2.5-7.2          c0.2-0.2,0.5-0.4,0.8-0.4c0.3,0,0.6,0.1,0.8,0.4c2.6,3.4,3.5,5.8,2.6,7.4C464.4,305.3,462.8,305.5,462.1,305.5z           M461.7,298.9c-1,1.5-1.9,3.4-1.5,4.2c0.2,0.4,1.1,0.5,1.5,0.5c0,0,0.1,0,0.1,0c0.4,0,1.3,0,1.6-0.5          C463.5,302.9,463.8,301.9,461.7,298.9z" />
							</g>
							<g>
								<path fill="#3A3D3E" d="M476.5,340.4h-29.4c-0.4,0-0.8-0.3-0.9-0.7l-2.5-9.2c-0.1-0.3,0-0.6,0.2-0.8s0.5-0.4,0.8-0.4H479          c0.3,0,0.6,0.1,0.8,0.4s0.2,0.5,0.2,0.8l-2.5,9.2C477.3,340.2,476.9,340.4,476.5,340.4z M447.8,338.5h27.9l2-7.3h-31.9          L447.8,338.5z" />
							</g>
							<g>
								<path fill="#3A3D3E" d="M468.7,330.9c-0.5,0-1-0.4-1-1v-20.5h-11.9v20.5c0,0.5-0.4,1-1,1s-1-0.4-1-1v-21.5c0-0.5,0.4-1,1-1          h13.8c0.5,0,1,0.4,1,1v21.5C469.7,330.5,469.2,330.9,468.7,330.9z" />
							</g>
						</g>
						<g>
							<path fill="#3A3D3E" d="M461.8,308.6c-0.5,0-1-0.4-1-1v-5.3c0-0.5,0.4-1,1-1s1,0.4,1,1v5.3         C462.8,308.2,462.3,308.6,461.8,308.6z" />
						</g>
					</g>
				</g>
				<g>
					<path fill="#3A3D3E" d="M478.5,336.1v-1.9c2.5,0,4.5-2,4.5-4.5c0-2.5-2-4.5-4.5-4.5s-4.5,2-4.5,4.5h-1.9c0-3.5,2.9-6.4,6.4-6.4       s6.4,2.9,6.4,6.4C484.9,333.2,482.1,336.1,478.5,336.1z" />
				</g>
			</g>
		</g>
	</g>
	
</svg>