<?xml version="1.0" encoding="utf-8"?>
<svg xmlns="http://www.w3.org/2000/svg" xmlns:xlink="http://www.w3.org/1999/xlink"
     viewBox="289.1 144.3 96.4 96.4"
     width="96" height="96">
<g xmlns="http://www.w3.org/2000/svg" id="wine-bread_1_">
		<g id="label_33_">
			<circle fill="#FFCD4F" cx="337.3" cy="192.5" r="48.2" />
		</g>
		<g id="wine-bread">
			<g id="fill_26_">
				<g>
					<path fill="#915E45" d="M347.8,213.4c-2.3,0-4.3-0.7-5.7-2.1c-2.9-2.9-2.8-7.9,0-13.3l0.2-0.4l0.5-0.1c0.1,0,0.3,0,0.7,0       l-1.2-0.1l0.9-1.4c0.7-1,1.5-2,2.3-2.9l0.4-0.4l0.6,0.1c0.1,0,0.3,0,0.7,0c0,0,0.1,0,0.1,0l-1.5-0.2l1.6-1.5       c1.3-1.1,2.6-2.2,4.1-3l0.3-0.2l0.3,0.1c0,0,0,0,0,0c0.1,0,0.3,0,0.5,0c0.4,0,0.9,0,1.6,0.2l-2.2-0.6l2.7-1c1.8-0.7,3.5-1,5-1       c2.3,0,4.3,0.7,5.7,2.1c2,2,2.6,5,1.7,8.7c-0.8,3.6-3,7.4-6.2,10.5C357.3,210.9,352.1,213.4,347.8,213.4L347.8,213.4z        M347.4,198.5c1.5,0.9,3.1,2.6,4,5.6C350.5,201.1,349,199.4,347.4,198.5L347.4,198.5z M360.7,194.7c0.1,0.3,0.1,0.6,0.2,0.9       C360.8,195.3,360.8,195,360.7,194.7L360.7,194.7z" />
				</g>
				<g>
					<path fill="#FFFFFF" d="M327.9,175.5c4.8,0,9.7-0.8,12.3-2.5v7.3c-2.6-1.6-7.5-2.5-12.3-2.5c-4.8,0-9.7,0.8-12.3,2.5l0-7.3       C318.2,174.6,323.1,175.5,327.9,175.5z" />
				</g>
				<g>
					<path fill="#98E1A0" d="M315.6,183.1c0-1.1,4.3-3.3,12.3-3.3c8,0,12.3,2.2,12.3,3.3c0,1.1-4.3,3.3-12.3,3.3       C319.9,186.4,315.6,184.2,315.6,183.1L315.6,183.1z" />
				</g>
				<g>
					<path fill="#FFFFFF" d="M340.2,170.2c0,1.1-4.3,3.3-12.3,3.3c-8,0-12.3-2.2-12.3-3.3c0-0.2,0.1-0.4,0.4-0.6c0,0,0,0,0,0       c0.2-0.2,0.5-0.4,0.9-0.6c1.8-1,5.6-2,11-2C335.8,166.9,340.2,169.1,340.2,170.2z" />
				</g>
				<g>
					<path fill="#98E1A0" d="M315.9,186c2.7,1.5,7.4,2.3,12,2.3c4.7,0,9.4-0.8,12-2.3c-0.5,2.7-1.9,5.2-3.8,7       c-3.8,3.5-8.1,3.2-8.1,3.2c-0.1,0-0.1,0-0.2,0c0,0-4.3,0.3-8.1-3.2C317.7,191.2,316.4,188.8,315.9,186z" />
				</g>
				<g>
					<path fill="#F2F2F2" d="M327.9,218.1c-6.4,0-9.9-1.7-9.9-2.4c0-0.5,2.3-1.9,7.6-2.3l1.4,0v1.8h1.9v-1.8l1.3,0       c5.4,0.4,7.6,1.8,7.6,2.3C337.8,216.4,334.3,218.1,327.9,218.1z" />
				</g>
			</g>
			<g id="line_27_">
				<g>
					<g>
						<path fill="#3A3D3E" d="M347.8,214.3c-2.6,0-4.8-0.8-6.3-2.4c-4.4-4.4-2.4-13.7,4.5-20.5c3.3-3.3,7.2-5.6,11-6.5        c4-0.9,7.4-0.2,9.6,2c2.2,2.2,2.9,5.6,2,9.6c-0.9,3.8-3.2,7.7-6.5,11v0c-3.3,3.3-7.2,5.6-11,6.5        C349.9,214.2,348.8,214.3,347.8,214.3z M360.1,186.5c-0.9,0-1.8,0.1-2.8,0.3c-3.5,0.8-7,2.9-10.1,5.9        c-6.1,6.1-8.1,14.1-4.5,17.8c1.7,1.7,4.5,2.3,7.8,1.5c3.5-0.8,7-2.9,10.1-5.9v0c3-3,5.1-6.6,5.9-10.1c0.8-3.3,0.2-6-1.5-7.8        C363.9,187.1,362.2,186.5,360.1,186.5z" />
					</g>
					<g>
						<path fill="#3A3D3E" d="M351.4,205.1c-0.4,0-0.8-0.3-0.9-0.7c-1.9-6.8-7.2-6-7.4-5.9c-0.5,0.1-1-0.3-1.1-0.8        c-0.1-0.5,0.3-1,0.8-1.1c0.1,0,7.2-1.1,9.6,7.3c0.1,0.5-0.1,1-0.7,1.2C351.6,205.1,351.5,205.1,351.4,205.1z" />
					</g>
					<g>
						<path fill="#3A3D3E" d="M356.1,200.3c-0.4,0-0.8-0.2-0.9-0.6c-2.3-6.6-8.2-6-8.4-6c-0.5,0.1-1-0.3-1.1-0.8        c-0.1-0.5,0.3-1,0.8-1.1c0.1,0,7.7-0.9,10.5,7.3c0.2,0.5-0.1,1.1-0.6,1.2C356.4,200.3,356.2,200.3,356.1,200.3z" />
					</g>
					<g>
						<path fill="#3A3D3E" d="M360.9,196.5c-0.5,0-0.9-0.3-0.9-0.8c-1.4-7.5-7.2-6.8-7.5-6.8c-0.5,0.1-1-0.3-1.1-0.8        c-0.1-0.5,0.3-1,0.8-1.1c0.1,0,7.9-0.9,9.6,8.4c0.1,0.5-0.2,1-0.8,1.1C361,196.5,360.9,196.5,360.9,196.5z" />
					</g>
				</g>
				<g>
					<g>
						<rect x="326.9" y="197.1" fill="#3A3D3E" width="1.9" height="18.1" />
					</g>
					<g>
						<path fill="#3A3D3E" d="M327.9,188.3c-7.1,0-14.2-1.8-14.2-5.2c0-3.4,7.2-5.2,14.2-5.2s14.2,1.8,14.2,5.2        C342.1,186.5,334.9,188.3,327.9,188.3z M327.9,179.8c-8,0-12.3,2.2-12.3,3.3s4.3,3.3,12.3,3.3s12.3-2.2,12.3-3.3        S335.8,179.8,327.9,179.8z" />
					</g>
					<g>
						<path fill="#3A3D3E" d="M327.9,175.5c-7.1,0-14.2-1.8-14.2-5.2c0-3.4,7.2-5.2,14.2-5.2s14.2,1.8,14.2,5.2        C342.1,173.7,334.9,175.5,327.9,175.5z M327.9,166.9c-8,0-12.3,2.2-12.3,3.3s4.3,3.3,12.3,3.3s12.3-2.2,12.3-3.3        S335.8,166.9,327.9,166.9z" />
					</g>
					<g>
						<path fill="#3A3D3E" d="M328.3,198.2c-0.2,0-0.3,0-0.4,0c-0.7,0-5.3,0.1-9.5-3.7c-3-2.8-4.7-6.9-4.7-11.3v-12.5        c0-0.1,0-0.2,0-0.3c0.1-0.5,0.5-1,1.1-0.9c0.5,0.1,0.9,0.5,0.9,1l0,0.1l0,12.5c0,3.8,1.5,7.4,4.1,9.9c3.8,3.5,8.1,3.2,8.1,3.2        c0.1,0,0.1,0,0.2,0c0,0,4.3,0.3,8.1-3.2c2.6-2.4,4.1-6,4.1-9.9v-12.5c0,0,0-0.2,0-0.2c-0.1-0.5,0.3-1,0.9-1.1        c0.5-0.1,1,0.3,1.1,0.9c0,0.2,0,0.3,0,0.4v12.5c0,4.4-1.7,8.5-4.7,11.3C333.7,197.9,329.7,198.2,328.3,198.2z" />
					</g>
					<g>
						<path fill="#3A3D3E" d="M315.3,169.9c-0.2,0-0.5-0.1-0.7-0.3c-0.4-0.4-0.4-0.9-0.1-1.3c0.4-0.5,1-0.9,1.6-1.1        c0.5-0.2,1,0.1,1.2,0.5c0.2,0.5,0,1-0.4,1.2c-0.4,0.2-0.8,0.5-1,0.7C315.8,169.8,315.6,169.9,315.3,169.9z" />
					</g>
					<g>
						<path fill="#3A3D3E" d="M327.9,220c-5.7,0-11.9-1.3-11.9-4.3c0-2.6,4.9-3.9,9.4-4.2l4.8,0l0,0c4.6,0.3,9.4,1.6,9.4,4.2        C339.7,218.6,333.6,220,327.9,220z M325.5,213.4c-5.3,0.4-7.6,1.8-7.6,2.3c0,0.7,3.5,2.4,9.9,2.4c6.4,0,9.9-1.7,9.9-2.4        c0-0.5-2.3-1.9-7.6-2.3H325.5z" />
					</g>
				</g>
			</g>
		</g>
	</g>
	
</svg>